<?xml version="1.0" encoding="utf-8"?>
<!-- Generator: Adobe Illustrator 24.0.1, SVG Export Plug-In . SVG Version: 6.00 Build 0)  -->
<svg version="1.1" id="Слой_1" xmlns="http://www.w3.org/2000/svg" xmlns:xlink="http://www.w3.org/1999/xlink" x="0px" y="0px"
	 viewBox="0 0 250 250" style="enable-background:new 0 0 250 250;" xml:space="preserve">
<style type="text/css">
	.st0{fill:#0042FF;}
	.st1{fill:#747D8C;}
</style>
<g>
	<g>
		<path class="st0" d="M136.06,100.79"/>
	</g>
</g>
<path class="st1" d="M241.22,125.1c0-0.07,0-0.14,0-0.21c0-30.95-12.06-60.06-33.94-81.94S156.29,9,125.33,9
	S65.28,21.06,43.39,42.95C21.55,64.77,9.51,93.8,9.45,124.66v0.02c0,0.07,0,0.14,0,0.21c0,30.95,12.06,60.06,33.94,81.94
	c21.87,21.87,50.95,33.93,81.88,33.94c0.02,0,0.05,0,0.07,0c0.01,0,0.03,0,0.04,0c30.94-0.01,60.02-12.07,81.9-33.94
	c21.84-21.84,33.88-50.85,33.94-81.71C241.22,125.11,241.22,125.1,241.22,125.1L241.22,125.1z M180.01,211.32l-9.96-6.58
	c-3.13-2.06-7.34-1.21-9.41,1.92c-2.06,3.13-1.21,7.34,1.92,9.41l3.81,2.52c-11.37,5-23.82,7.99-36.89,8.51l-5.35-10.7
	c-1.67-3.36-5.75-4.71-9.11-3.04s-4.71,5.75-3.04,9.11l2.05,4.09c-12.95-1.43-25.17-5.28-36.21-11.1l0.72-11.93
	c0.22-3.75-2.63-6.96-6.37-7.19c-3.74-0.22-6.96,2.63-7.19,6.37l-0.27,4.52c-10.22-7.54-18.98-16.93-25.8-27.67l6.58-9.96
	c2.06-3.13,1.21-7.34-1.92-9.41c-3.13-2.06-7.34-1.21-9.41,1.92l-2.52,3.81c-5-11.37-7.99-23.82-8.51-36.89l10.7-5.35
	c3.36-1.67,4.71-5.75,3.04-9.11s-5.75-4.71-9.11-3.04l-4.09,2.05c1.43-12.95,5.28-25.17,11.1-36.21l11.93,0.72
	c0.14,0.01,0.28,0.01,0.42,0.01c3.56,0,6.55-2.78,6.77-6.39c0.22-3.75-2.63-6.96-6.37-7.19l-4.52-0.27
	c7.54-10.22,16.93-18.98,27.67-25.8l9.97,6.58c1.15,0.76,2.45,1.12,3.74,1.12c2.2,0,4.37-1.07,5.67-3.05
	c2.06-3.13,1.2-7.34-1.92-9.41l-3.81-2.51c11.37-5,23.82-7.99,36.89-8.51l5.35,10.7c1.19,2.38,3.59,3.76,6.08,3.76
	c1.02,0,2.05-0.23,3.03-0.72c3.36-1.67,4.71-5.75,3.04-9.11l-2.05-4.09c12.95,1.43,25.17,5.28,36.22,11.1l-0.72,11.93
	c-0.22,3.75,2.63,6.96,6.37,7.19c0.14,0.01,0.28,0.01,0.41,0.01c3.56,0,6.55-2.78,6.77-6.39l0.27-4.52
	c10.22,7.54,18.98,16.93,25.8,27.67l-6.58,9.97c-2.06,3.13-1.21,7.34,1.92,9.41c1.15,0.76,2.45,1.12,3.74,1.12
	c2.2,0,4.37-1.07,5.67-3.05l2.52-3.81c5,11.37,7.99,23.82,8.51,36.89l-10.7,5.35c-3.36,1.67-4.71,5.75-3.04,9.11
	c1.19,2.38,3.59,3.76,6.08,3.76c1.02,0,2.05-0.23,3.03-0.72l4.09-2.05c-1.43,12.95-5.28,25.17-11.1,36.21l-11.93-0.72
	c-3.75-0.22-6.96,2.63-7.19,6.37c-0.22,3.75,2.63,6.96,6.37,7.19l4.52,0.27C200.15,195.73,190.75,204.5,180.01,211.32L180.01,211.32
	z"/>
<path class="st0" d="M125.33,52.64c-39.84,0-72.25,32.41-72.25,72.25c0,39.84,32.41,72.25,72.25,72.25s72.25-32.41,72.25-72.25
	S165.17,52.64,125.33,52.64z M125.33,139.92c-8.29,0-15.03-6.74-15.03-15.03s6.74-15.03,15.03-15.03s15.03,6.74,15.03,15.03
	S133.62,139.92,125.33,139.92z M66.67,124.89c0-8.25,1.72-16.12,4.81-23.26l26.4,15.24c-0.74,2.55-1.15,5.23-1.15,8.01
	c0,2.78,0.41,5.47,1.15,8.01l-26.39,15.24C68.38,141.01,66.67,133.14,66.67,124.89L66.67,124.89z M152.79,116.88l26.4-15.24
	c3.1,7.13,4.81,14.99,4.81,23.26s-1.72,16.12-4.81,23.25l-26.4-15.24c0.74-2.55,1.15-5.23,1.15-8.01
	C153.94,122.12,153.53,119.41,152.79,116.88L152.79,116.88z M172.39,89.88l-26.4,15.24c-3.71-3.88-8.49-6.71-13.86-8.02V66.61
	C148.57,68.52,162.96,77.24,172.39,89.88z M118.54,66.61V97.1c-5.37,1.31-10.15,4.15-13.86,8.02l-26.4-15.24
	C87.71,77.24,102.1,68.52,118.54,66.61L118.54,66.61z M78.28,159.9l26.4-15.24c3.71,3.88,8.49,6.71,13.86,8.02v30.48
	C102.1,181.26,87.71,172.53,78.28,159.9L78.28,159.9z M132.13,183.16v-30.48c5.37-1.31,10.15-4.15,13.86-8.02l26.4,15.24
	C162.96,172.53,148.57,181.26,132.13,183.16z"/>
</svg>
