<!-- Generated by IcoMoon.io -->
<svg version="1.1" xmlns="http://www.w3.org/2000/svg" width="1024" height="1024" viewBox="0 0 1024 1024">
<title></title>
<g id="icomoon-ignore">
</g>
<path fill="#fff" d="M988.037 512.41c0-0.287 0-0.573 0-0.86 0-126.771-49.398-246.006-139.018-335.626s-208.855-139.059-335.667-139.059-245.965 49.398-335.626 139.059c-89.457 89.375-138.772 208.282-139.018 334.684v0.082c0 0.287 0 0.573 0 0.86 0 126.771 49.398 246.006 139.018 335.626 89.58 89.58 208.691 138.977 335.38 139.018 0.082 0 0.205 0 0.287 0 0.041 0 0.123 0 0.164 0 126.73-0.041 245.842-49.439 335.462-139.018 89.457-89.457 138.772-208.282 139.018-334.684 0-0.041 0-0.082 0-0.082v0zM737.321 865.567l-40.796-26.952c-12.82-8.438-30.065-4.956-38.543 7.864-8.438 12.82-4.956 30.065 7.864 38.543l15.606 10.322c-46.572 20.48-97.567 32.727-151.101 34.857l-21.914-43.827c-6.84-13.763-23.552-19.292-37.315-12.452s-19.292 23.552-12.452 37.315l8.397 16.753c-53.043-5.857-103.096-21.627-148.316-45.466l2.949-48.865c0.901-15.36-10.772-28.508-26.092-29.45-15.319-0.901-28.508 10.772-29.45 26.092l-1.106 18.514c-41.861-30.884-77.742-69.345-105.677-113.336l26.952-40.796c8.438-12.82 4.956-30.065-7.864-38.543-12.82-8.438-30.065-4.956-38.543 7.864l-10.322 15.606c-20.48-46.572-32.727-97.567-34.857-151.101l43.827-21.914c13.763-6.84 19.292-23.552 12.452-37.315s-23.552-19.292-37.315-12.452l-16.753 8.397c5.857-53.043 21.627-103.096 45.466-148.316l48.865 2.949c0.573 0.041 1.147 0.041 1.72 0.041 14.582 0 26.829-11.387 27.73-26.173 0.901-15.36-10.772-28.508-26.092-29.45l-18.514-1.106c30.884-41.861 69.345-77.742 113.336-105.677l40.837 26.952c4.71 3.113 10.035 4.588 15.319 4.588 9.011 0 17.9-4.383 23.224-12.493 8.438-12.82 4.915-30.065-7.864-38.543l-15.606-10.281c46.572-20.48 97.567-32.727 151.101-34.857l21.914 43.827c4.874 9.748 14.705 15.401 24.904 15.401 4.178 0 8.397-0.942 12.411-2.949 13.763-6.84 19.292-23.552 12.452-37.315l-8.397-16.753c53.043 5.857 103.096 21.627 148.357 45.466l-2.949 48.865c-0.901 15.36 10.772 28.508 26.092 29.45 0.573 0.041 1.147 0.041 1.679 0.041 14.582 0 26.829-11.387 27.73-26.173l1.106-18.514c41.861 30.884 77.742 69.345 105.677 113.336l-26.952 40.837c-8.438 12.82-4.956 30.065 7.864 38.543 4.71 3.113 10.035 4.588 15.319 4.588 9.011 0 17.9-4.383 23.224-12.493l10.322-15.606c20.48 46.572 32.727 97.567 34.857 151.101l-43.827 21.914c-13.763 6.84-19.292 23.552-12.452 37.315 4.874 9.748 14.705 15.401 24.904 15.401 4.178 0 8.397-0.942 12.411-2.949l16.753-8.397c-5.857 53.043-21.627 103.096-45.466 148.316l-48.865-2.949c-15.36-0.901-28.508 10.772-29.45 26.092-0.901 15.36 10.772 28.508 26.092 29.45l18.514 1.106c-30.884 41.902-69.386 77.824-113.377 105.759v0z"></path>
<path fill="#fff" d="M513.352 215.613c-163.185 0-295.936 132.751-295.936 295.936s132.751 295.936 295.936 295.936 295.936-132.751 295.936-295.936-132.751-295.936-295.936-295.936zM513.352 573.112c-33.956 0-61.563-27.607-61.563-61.563s27.607-61.563 61.563-61.563 61.563 27.607 61.563 61.563-27.607 61.563-61.563 61.563zM273.080 511.549c0-33.792 7.045-66.028 19.702-95.273l108.134 62.423c-3.031 10.445-4.71 21.422-4.71 32.809s1.679 22.405 4.71 32.809l-108.093 62.423c-12.739-29.164-19.743-61.399-19.743-95.191v0zM625.828 478.74l108.134-62.423c12.698 29.204 19.702 61.399 19.702 95.273s-7.045 66.028-19.702 95.232l-108.134-62.423c3.031-10.445 4.71-21.422 4.71-32.809s-1.679-22.487-4.71-32.85v0zM706.109 368.148l-108.134 62.423c-15.196-15.892-34.775-27.484-56.771-32.85v-124.887c67.338 7.823 126.28 43.54 164.905 95.314zM485.54 272.835v124.887c-21.996 5.366-41.574 16.998-56.771 32.85l-108.134-62.423c38.625-51.773 97.567-87.491 164.905-95.314v0zM320.635 654.95l108.134-62.423c15.196 15.892 34.775 27.484 56.771 32.85v124.846c-67.338-7.782-126.28-43.54-164.905-95.273v0zM541.204 750.223v-124.846c21.996-5.366 41.574-16.998 56.771-32.85l108.134 62.423c-38.625 51.732-97.567 87.491-164.905 95.273z"></path>
</svg>
