<?xml version="1.0" encoding="utf-8"?>
<!-- Generator: Adobe Illustrator 24.0.1, SVG Export Plug-In . SVG Version: 6.00 Build 0)  -->
<svg version="1.1" id="Слой_1" xmlns="http://www.w3.org/2000/svg" xmlns:xlink="http://www.w3.org/1999/xlink" x="0px" y="0px"
	 viewBox="0 0 250 250" style="enable-background:new 0 0 250 250;" xml:space="preserve">
<style type="text/css">
	.st0{fill:#FFFFFF;}
</style>
<path class="st0" d="M179.48,250c-4.1,0-8.2-1.57-11.33-4.7L59.18,136.33c-6.26-6.26-6.26-16.41,0-22.67
	c6.26-6.26,16.4-6.26,22.67,0l108.97,108.97c6.26,6.26,6.26,16.4,0,22.67C187.69,248.43,183.59,250,179.48,250z"/>
<path class="st0" d="M70.52,141.03c-4.1,0-8.2-1.57-11.33-4.7c-6.26-6.26-6.26-16.41,0-22.67L168.15,4.7
	c6.26-6.26,16.4-6.26,22.67,0c6.26,6.26,6.26,16.41,0,22.67L81.85,136.33C78.72,139.46,74.62,141.03,70.52,141.03z"/>
</svg>
