<?xml version="1.0" encoding="utf-8"?>
<!-- Generator: Adobe Illustrator 24.0.1, SVG Export Plug-In . SVG Version: 6.00 Build 0)  -->
<svg version="1.1" id="Слой_1" xmlns="http://www.w3.org/2000/svg" xmlns:xlink="http://www.w3.org/1999/xlink" x="0px" y="0px"
	 viewBox="0 0 250 250" style="enable-background:new 0 0 250 250;" xml:space="preserve">
<style type="text/css">
	.st0{fill:#07108F;}
</style>
<path class="st0" d="M100.67,150.67h48.67c13.42,0,24.33-10.91,24.33-24.33S162.75,102,149.33,102h-48.67
	c-13.42,0-24.33,10.91-24.33,24.33S87.25,150.67,100.67,150.67z M100.67,118.22h48.67c4.47,0,8.11,3.64,8.11,8.11
	c0,4.47-3.64,8.11-8.11,8.11h-48.67c-4.47,0-8.11-3.64-8.11-8.11C92.56,121.86,96.19,118.22,100.67,118.22z"/>
<path class="st0" d="M65.52,37.11L27.67,65.5v150.06h194.67V65.5l-37.85-28.39H65.52z M206.11,199.33H43.89V85.78h162.22V199.33z
	 M49.29,69.56l21.63-16.22h108.15l21.63,16.22H49.29z"/>
<path class="st0" d="M157.44,166.89h32.44v16.22h-32.44V166.89z"/>
</svg>
