<?xml version="1.0" encoding="utf-8"?>
<!-- Generator: Adobe Illustrator 24.0.1, SVG Export Plug-In . SVG Version: 6.00 Build 0)  -->
<svg version="1.1" id="Слой_1" xmlns="http://www.w3.org/2000/svg" xmlns:xlink="http://www.w3.org/1999/xlink" x="0px" y="0px"
	 viewBox="0 0 250 250" style="enable-background:new 0 0 250 250;" xml:space="preserve">
<style type="text/css">
	.st0{fill:#FFFFFF;}
</style>
<path class="st0" d="M124.97,195.55c-4.13,0-8.26-1.58-11.41-4.73L4.73,82c-6.3-6.3-6.3-16.51,0-22.82c6.29-6.3,16.51-6.3,22.82,0
	L136.38,168c6.3,6.3,6.3,16.51,0,22.82C133.23,193.97,129.1,195.55,124.97,195.55z"/>
<path class="st0" d="M124.97,195.55c-4.13,0-8.26-1.58-11.41-4.73c-6.3-6.3-6.3-16.51,0-22.82L222.38,59.18
	c6.3-6.3,16.51-6.3,22.82,0c6.3,6.3,6.3,16.52,0,22.82L136.38,190.82C133.22,193.97,129.1,195.55,124.97,195.55z"/>
</svg>
