<?xml version="1.0" encoding="utf-8"?>
<!-- Generator: Adobe Illustrator 24.0.1, SVG Export Plug-In . SVG Version: 6.00 Build 0)  -->
<svg version="1.1" id="Слой_1" xmlns="http://www.w3.org/2000/svg" xmlns:xlink="http://www.w3.org/1999/xlink" x="0px" y="0px"
	 viewBox="0 0 250 250" style="enable-background:new 0 0 250 250;" xml:space="preserve">
<style type="text/css">
	.st0{fill:#FFFFFF;}
</style>
<path class="st0" d="M235.19,54.97H77.36c-8.19,0-14.83-6.64-14.83-14.83s6.64-14.83,14.83-14.83h157.83
	c8.19,0,14.83,6.64,14.83,14.83S243.38,54.97,235.19,54.97z"/>
<path class="st0" d="M235.19,139.83H77.36c-8.19,0-14.83-6.64-14.83-14.83s6.64-14.83,14.83-14.83h157.83
	c8.19,0,14.83,6.64,14.83,14.83S243.38,139.83,235.19,139.83z"/>
<path class="st0" d="M235.19,224.68H77.36c-8.19,0-14.83-6.64-14.83-14.83c0-8.19,6.64-14.83,14.83-14.83h157.83
	c8.19,0,14.83,6.64,14.83,14.83C250.02,218.04,243.38,224.68,235.19,224.68z"/>
<circle class="st0" cx="21.72" cy="125" r="21.7"/>
<circle class="st0" cx="21.72" cy="209.86" r="21.7"/>
<circle class="st0" cx="21.72" cy="40.14" r="21.7"/>
</svg>
