<?xml version="1.0" encoding="utf-8"?>
<!-- Generator: Adobe Illustrator 24.0.1, SVG Export Plug-In . SVG Version: 6.00 Build 0)  -->
<svg version="1.1" id="Слой_1" xmlns="http://www.w3.org/2000/svg" xmlns:xlink="http://www.w3.org/1999/xlink" x="0px" y="0px"
	 viewBox="0 0 250 250" style="enable-background:new 0 0 250 250;" xml:space="preserve">
<style type="text/css">
	.st0{fill:#FFFFFF;}
</style>
<path class="st0" d="M172.02,146.01c-5.76,0-11.49-2.34-15.68-6.94L62.29,35.38c-7.85-8.66-7.21-22.03,1.45-29.89
	s22.03-7.2,29.89,1.45l94.06,103.68c7.85,8.66,7.2,22.03-1.46,29.89C182.19,144.18,177.11,146.01,172.02,146.01z"/>
<path class="st0" d="M77.96,250c-5.07,0-10.17-1.81-14.21-5.48c-8.66-7.85-9.3-21.24-1.45-29.9l94.05-103.68
	c7.89-8.68,21.24-9.3,29.9-1.45s9.31,21.23,1.46,29.89L93.65,243.06C89.46,247.66,83.73,250,77.96,250z"/>
</svg>
