<?xml version="1.0" encoding="utf-8"?>
<!-- Generator: Adobe Illustrator 24.0.1, SVG Export Plug-In . SVG Version: 6.00 Build 0)  -->
<svg version="1.1" id="Слой_1" xmlns="http://www.w3.org/2000/svg" xmlns:xlink="http://www.w3.org/1999/xlink" x="0px" y="0px"
	 viewBox="0 0 250 250" style="enable-background:new 0 0 250 250;" xml:space="preserve">
<style type="text/css">
	.st0{fill:#747D8C;}
	.st1{fill:#0042FF;}
</style>
<path class="st0" d="M223.06,0H26.94C12.08,0,0,12.08,0,26.94v196.13C0,237.92,12.08,250,26.94,250h196.13
	c14.85,0,26.94-12.08,26.94-26.94V26.94C250,12.08,237.92,0,223.06,0z M26.94,14.65h196.13c6.78,0,12.29,5.51,12.29,12.29v35.82
	H14.65V26.94C14.65,20.16,20.16,14.65,26.94,14.65z M223.06,235.35H26.94c-6.78,0-12.29-5.51-12.29-12.29V77.41h220.7v145.65
	C235.35,229.84,229.84,235.35,223.06,235.35z"/>
<path class="st1" d="M54.39,46.03c1.93,0,3.81-0.78,5.18-2.15c1.36-1.36,2.14-3.25,2.14-5.18c0-1.93-0.78-3.82-2.14-5.18
	c-1.37-1.36-3.25-2.14-5.18-2.14c-1.93,0-3.82,0.78-5.18,2.14s-2.14,3.25-2.14,5.18s0.78,3.81,2.14,5.18
	C50.58,45.25,52.47,46.03,54.39,46.03z"/>
<path class="st1" d="M101.47,46.03c1.93,0,3.81-0.78,5.18-2.15c1.36-1.36,2.14-3.25,2.14-5.18c0-1.93-0.78-3.82-2.14-5.18
	c-1.37-1.36-3.25-2.14-5.18-2.14s-3.82,0.78-5.18,2.14c-1.36,1.36-2.14,3.25-2.14,5.18s0.78,3.81,2.14,5.18
	C97.65,45.25,99.54,46.03,101.47,46.03z"/>
<path class="st1" d="M148.53,46.03c1.93,0,3.81-0.78,5.18-2.15c1.36-1.36,2.14-3.25,2.14-5.18c0-1.93-0.78-3.82-2.14-5.18
	s-3.25-2.14-5.18-2.14s-3.82,0.78-5.18,2.14s-2.14,3.25-2.14,5.18s0.78,3.81,2.14,5.18C144.72,45.25,146.61,46.03,148.53,46.03z"/>
<path class="st1" d="M195.61,46.03c1.93,0,3.81-0.79,5.18-2.15c1.36-1.36,2.14-3.25,2.14-5.18c0-1.93-0.78-3.82-2.14-5.18
	c-1.37-1.36-3.25-2.14-5.18-2.14c-1.93,0-3.82,0.78-5.18,2.14c-1.36,1.36-2.14,3.25-2.14,5.18s0.78,3.81,2.14,5.18
	C191.79,45.24,193.68,46.03,195.61,46.03z"/>
<path class="st1" d="M211.3,94.14H38.7c-4.04,0-7.32,3.28-7.32,7.32V211.3c0,4.04,3.28,7.32,7.32,7.32H211.3
	c4.05,0,7.32-3.28,7.32-7.32V101.47C218.62,97.42,215.34,94.14,211.3,94.14z M203.97,203.97H46.03v-95.18h157.94V203.97z"/>
<path class="st1" d="M70.08,140.17h109.83c4.04,0,7.32-3.28,7.32-7.32s-3.28-7.32-7.32-7.32H70.08c-4.04,0-7.32,3.28-7.32,7.32
	S66.04,140.17,70.08,140.17z"/>
</svg>
