<!-- Generated by IcoMoon.io -->
<svg version="1.1" xmlns="http://www.w3.org/2000/svg" width="1024" height="1024" viewBox="0 0 1024 1024">
<title>home</title>
<g id="icomoon-ignore">
</g>
<path fill="#fff" d="M913.654 0h-803.308c-60.867 0-110.346 49.48-110.346 110.346v803.348c0 60.826 49.48 110.305 110.346 110.305h803.348c60.826 0 110.346-49.48 110.346-110.346v-803.308c-0.041-60.867-49.521-110.346-110.387-110.346zM110.346 60.006h803.348c27.771 0 50.34 22.569 50.34 50.34v146.719h-904.028v-146.719c0-27.771 22.569-50.34 50.34-50.34zM913.654 963.994h-803.308c-27.771 0-50.34-22.569-50.34-50.34v-596.582h903.987v596.582c0 27.771-22.569 50.34-50.34 50.34z"></path>
<path fill="#fff" d="M222.781 188.539c7.905 0 15.606-3.195 21.217-8.806 5.571-5.571 8.765-13.312 8.765-21.217s-3.195-15.647-8.765-21.217c-5.612-5.571-13.312-8.765-21.217-8.765s-15.647 3.195-21.217 8.765-8.765 13.312-8.765 21.217 3.195 15.606 8.765 21.217c5.612 5.612 13.353 8.806 21.217 8.806z"></path>
<path fill="#fff" d="M415.621 188.539c7.905 0 15.606-3.195 21.217-8.806 5.571-5.571 8.765-13.312 8.765-21.217s-3.195-15.647-8.765-21.217c-5.612-5.571-13.312-8.765-21.217-8.765s-15.647 3.195-21.217 8.765c-5.571 5.571-8.765 13.312-8.765 21.217s3.195 15.606 8.765 21.217c5.571 5.612 13.312 8.806 21.217 8.806z"></path>
<path fill="#fff" d="M608.379 188.539c7.905 0 15.606-3.195 21.217-8.806 5.571-5.571 8.765-13.312 8.765-21.217s-3.195-15.647-8.765-21.217-13.312-8.765-21.217-8.765-15.647 3.195-21.217 8.765-8.765 13.312-8.765 21.217 3.195 15.606 8.765 21.217c5.612 5.612 13.353 8.806 21.217 8.806z"></path>
<path fill="#fff" d="M801.219 188.539c7.905 0 15.606-3.236 21.217-8.806 5.571-5.571 8.765-13.312 8.765-21.217s-3.195-15.647-8.765-21.217c-5.612-5.571-13.312-8.765-21.217-8.765s-15.647 3.195-21.217 8.765c-5.571 5.571-8.765 13.312-8.765 21.217s3.195 15.606 8.765 21.217c5.571 5.571 13.312 8.806 21.217 8.806z"></path>
<path fill="#fff" d="M865.485 385.597h-706.97c-16.548 0-29.983 13.435-29.983 29.983v449.905c0 16.548 13.435 29.983 29.983 29.983h706.97c16.589 0 29.983-13.435 29.983-29.983v-449.864c0-16.589-13.435-30.024-29.983-30.024zM835.461 835.461h-646.922v-389.857h646.922v389.857z"></path>
<path fill="#fff" d="M287.048 574.136h449.864c16.548 0 29.983-13.435 29.983-29.983s-13.435-29.983-29.983-29.983h-449.864c-16.548 0-29.983 13.435-29.983 29.983s13.435 29.983 29.983 29.983z"></path>
</svg>
