<!-- Generated by IcoMoon.io -->
<svg version="1.1" xmlns="http://www.w3.org/2000/svg" width="1024" height="1024" viewBox="0 0 1024 1024">
<title>home</title>
<g id="icomoon-ignore">
</g>
<path fill="#fff" d="M955.924 525.271c-4.137-8.438-4.137-18.104 0-26.542l38.175-78.111c21.258-43.5 4.424-95.355-38.339-118.047l-76.8-40.755c-8.274-4.383-13.967-12.206-15.606-21.463l-15.032-85.647c-8.356-47.677-52.47-79.749-100.434-72.95l-86.098 12.165c-9.298 1.311-18.473-1.679-25.231-8.192l-62.505-60.498c-34.816-33.669-89.334-33.669-124.109 0l-62.505 60.498c-6.758 6.513-15.933 9.503-25.231 8.192l-86.098-12.165c-47.964-6.799-92.037 25.231-100.434 72.95l-15.032 85.647c-1.638 9.257-7.291 17.080-15.606 21.463l-76.8 40.755c-42.762 22.692-59.597 74.547-38.339 118.047l38.175 78.111c4.137 8.438 4.137 18.104 0 26.542l-38.175 78.111c-21.258 43.5-4.424 95.355 38.339 118.047l76.8 40.755c8.274 4.383 13.967 12.206 15.606 21.463l15.032 85.647c7.619 43.418 44.851 73.851 87.613 73.851 4.219 0 8.479-0.287 12.78-0.901l86.098-12.165c9.298-1.311 18.473 1.679 25.231 8.192l62.505 60.457c17.408 16.835 39.731 25.231 62.054 25.231s44.646-8.438 62.054-25.231l62.505-60.457c6.758-6.513 15.933-9.503 25.231-8.192l86.098 12.165c47.964 6.799 92.037-25.272 100.434-72.95l15.032-85.647c1.638-9.257 7.291-17.080 15.606-21.463l76.8-40.755c42.762-22.692 59.638-74.547 38.339-118.047l-38.134-78.111zM928.072 669.286l-76.8 40.755c-24.494 12.984-41.288 36.127-46.080 63.406l-15.032 85.647c-2.826 16.138-17.736 26.993-33.956 24.699l-86.098-12.165c-27.443-3.891-54.641 4.956-74.547 24.207l-62.505 60.457c-11.756 11.387-30.228 11.387-41.984 0l-62.505-60.457c-16.835-16.302-38.871-25.108-61.85-25.108-4.219 0-8.438 0.287-12.698 0.901l-86.098 12.165c-16.22 2.294-31.13-8.561-33.956-24.699l-15.032-85.647c-4.792-27.32-21.586-50.422-46.080-63.406l-76.8-40.755c-14.459-7.66-20.152-25.231-12.984-39.936l38.175-78.111c12.165-24.904 12.165-53.494 0-78.397l-38.175-78.111c-7.209-14.705-1.475-32.276 12.984-39.936l76.8-40.755c24.494-12.984 41.288-36.127 46.080-63.406l15.032-85.647c2.826-16.138 17.736-26.993 33.956-24.699l86.098 12.165c27.443 3.891 54.641-4.956 74.547-24.207l62.505-60.457c11.756-11.387 30.228-11.387 41.984 0l62.505 60.457c19.948 19.292 47.104 28.099 74.547 24.207l86.098-12.165c16.22-2.294 31.13 8.561 33.956 24.699l15.032 85.647c4.792 27.32 21.586 50.422 46.080 63.406l76.8 40.755c14.459 7.66 20.152 25.231 12.984 39.936l-38.175 78.111c-12.165 24.904-12.165 53.494 0 78.397l38.175 78.111c7.168 14.705 1.475 32.236-12.984 39.936z"></path>
<path fill="#fff" d="M727.777 296.223c-11.51-11.551-30.228-11.551-41.779 0l-389.775 389.775c-11.551 11.551-11.551 30.228 0 41.779 5.775 5.775 13.312 8.643 20.89 8.643s15.114-2.867 20.89-8.643l389.775-389.775c11.51-11.551 11.51-30.228 0-41.779z"></path>
<path fill="#fff" d="M393.871 246.252c-59.72 0-108.257 48.579-108.257 108.257s48.579 108.257 108.257 108.257 108.257-48.579 108.257-108.257-48.538-108.257-108.257-108.257zM393.871 403.743c-27.156 0-49.234-22.077-49.234-49.234s22.077-49.234 49.234-49.234 49.234 22.077 49.234 49.234c0 27.156-22.077 49.234-49.234 49.234z"></path>
<path fill="#fff" d="M630.129 561.234c-59.72 0-108.257 48.579-108.257 108.257 0 59.72 48.579 108.257 108.257 108.257 59.72 0 108.257-48.579 108.257-108.257 0-59.72-48.579-108.257-108.257-108.257zM630.129 718.725c-27.156 0-49.234-22.077-49.234-49.234s22.077-49.234 49.234-49.234c27.156 0 49.234 22.077 49.234 49.234s-22.118 49.234-49.234 49.234z"></path>
</svg>
