<?xml version="1.0" encoding="utf-8"?>
<!-- Generator: Adobe Illustrator 24.0.1, SVG Export Plug-In . SVG Version: 6.00 Build 0)  -->
<svg version="1.1" id="Слой_1" xmlns="http://www.w3.org/2000/svg" xmlns:xlink="http://www.w3.org/1999/xlink" x="0px" y="0px"
	 viewBox="0 0 250 250" style="enable-background:new 0 0 250 250;" xml:space="preserve">
<style type="text/css">
	.st0{fill:#747D8C;}
	.st1{fill:#0042FF;}
</style>
<g>
	<g>
		<path class="st0" d="M233.38,128.24c-1.01-2.06-1.01-4.42,0-6.48l9.32-19.07c5.19-10.62,1.08-23.28-9.36-28.82l-18.75-9.95
			c-2.02-1.07-3.41-2.98-3.81-5.24l-3.67-20.91c-2.04-11.64-12.81-19.47-24.52-17.81l-21.02,2.97c-2.27,0.32-4.51-0.41-6.16-2
			L140.15,6.16c-8.5-8.22-21.81-8.22-30.3,0L94.59,20.93c-1.65,1.59-3.89,2.32-6.16,2l-21.02-2.97
			C55.7,18.3,44.94,26.12,42.89,37.77l-3.67,20.91c-0.4,2.26-1.78,4.17-3.81,5.24l-18.75,9.95C6.22,79.41,2.11,92.07,7.3,102.69
			l9.32,19.07c1.01,2.06,1.01,4.42,0,6.48L7.3,147.31c-5.19,10.62-1.08,23.28,9.36,28.82l18.75,9.95c2.02,1.07,3.41,2.98,3.81,5.24
			l3.67,20.91c1.86,10.6,10.95,18.03,21.39,18.03c1.03,0,2.07-0.07,3.12-0.22l21.02-2.97c2.27-0.32,4.51,0.41,6.16,2l15.26,14.76
			c4.25,4.11,9.7,6.16,15.15,6.16c5.45,0,10.9-2.06,15.15-6.16l15.26-14.76c1.65-1.59,3.89-2.32,6.16-2l21.02,2.97
			c11.71,1.66,22.47-6.17,24.52-17.81l3.67-20.91c0.4-2.26,1.78-4.17,3.81-5.24l18.75-9.95c10.44-5.54,14.56-18.2,9.36-28.82
			L233.38,128.24z M226.58,163.4l-18.75,9.95c-5.98,3.17-10.08,8.82-11.25,15.48l-3.67,20.91c-0.69,3.94-4.33,6.59-8.29,6.03
			l-21.02-2.97c-6.7-0.95-13.34,1.21-18.2,5.91l-15.26,14.76c-2.87,2.78-7.38,2.78-10.25,0l-15.26-14.76
			c-4.11-3.98-9.49-6.13-15.1-6.13c-1.03,0-2.06,0.07-3.1,0.22l-21.02,2.97c-3.96,0.56-7.6-2.09-8.29-6.03l-3.67-20.91
			c-1.17-6.67-5.27-12.31-11.25-15.48l-18.75-9.95c-3.53-1.87-4.92-6.16-3.17-9.75l9.32-19.07c2.97-6.08,2.97-13.06,0-19.14
			l-9.32-19.07c-1.76-3.59-0.36-7.88,3.17-9.75l18.75-9.95c5.98-3.17,10.08-8.82,11.25-15.48l3.67-20.91
			c0.69-3.94,4.33-6.59,8.29-6.03l21.02,2.97c6.7,0.95,13.34-1.21,18.2-5.91l15.26-14.76c2.87-2.78,7.38-2.78,10.25,0l15.26,14.76
			c4.87,4.71,11.5,6.86,18.2,5.91l21.02-2.97c3.96-0.56,7.6,2.09,8.29,6.03l3.67,20.91c1.17,6.67,5.27,12.31,11.25,15.48l18.75,9.95
			c3.53,1.87,4.92,6.16,3.17,9.75l-9.32,19.07c-2.97,6.08-2.97,13.06,0,19.14l9.32,19.07C231.5,157.24,230.11,161.52,226.58,163.4z"
			/>
	</g>
</g>
<g>
	<g>
		<path class="st1" d="M177.68,72.32c-2.81-2.82-7.38-2.82-10.2,0l-95.16,95.16c-2.82,2.82-2.82,7.38,0,10.2
			c1.41,1.41,3.25,2.11,5.1,2.11s3.69-0.7,5.1-2.11l95.16-95.16C180.49,79.7,180.49,75.14,177.68,72.32z"/>
	</g>
</g>
<g>
	<g>
		<path class="st1" d="M96.16,60.12c-14.58,0-26.43,11.86-26.43,26.43s11.86,26.43,26.43,26.43s26.43-11.86,26.43-26.43
			S110.74,60.12,96.16,60.12z M96.16,98.57c-6.63,0-12.02-5.39-12.02-12.02c0-6.63,5.39-12.02,12.02-12.02s12.02,5.39,12.02,12.02
			C108.18,93.18,102.79,98.57,96.16,98.57z"/>
	</g>
</g>
<g>
	<g>
		<path class="st1" d="M153.84,137.02c-14.58,0-26.43,11.86-26.43,26.43c0,14.58,11.86,26.43,26.43,26.43
			c14.58,0,26.43-11.86,26.43-26.43C180.27,148.87,168.41,137.02,153.84,137.02z M153.84,175.47c-6.63,0-12.02-5.39-12.02-12.02
			s5.39-12.02,12.02-12.02c6.63,0,12.02,5.39,12.02,12.02S160.46,175.47,153.84,175.47z"/>
	</g>
</g>
</svg>
