<svg width="20" height="20" viewBox="0 0 20 20" fill="none" xmlns="http://www.w3.org/2000/svg">
<circle cx="10" cy="10" r="8" fill="#8A8A8E"/>
<path d="M6 12.4269V13.7778C6 13.9022 6.09776 14 6.22219 14H7.57312C7.63089 14 7.68866 13.9778 7.72865 13.9333L12.5813 9.08511L10.9149 7.41867L6.06666 12.2669C6.02222 12.3113 6 12.3647 6 12.4269ZM13.87 7.7964C13.9112 7.75529 13.9439 7.70645 13.9662 7.65269C13.9885 7.59894 14 7.54131 14 7.48311C14 7.42491 13.9885 7.36728 13.9662 7.31352C13.9439 7.25976 13.9112 7.21093 13.87 7.16982L12.8302 6.12996C12.7891 6.08876 12.7402 6.05608 12.6865 6.03378C12.6327 6.01148 12.5751 6 12.5169 6C12.4587 6 12.4011 6.01148 12.3473 6.03378C12.2935 6.05608 12.2447 6.08876 12.2036 6.12996L11.3904 6.94318L13.0568 8.60962L13.87 7.7964Z" fill="white"/>
</svg>
