<?xml version="1.0" encoding="utf-8"?>
<!-- Generator: Adobe Illustrator 24.0.1, SVG Export Plug-In . SVG Version: 6.00 Build 0)  -->
<svg version="1.1" id="Слой_1" xmlns="http://www.w3.org/2000/svg" xmlns:xlink="http://www.w3.org/1999/xlink" x="0px" y="0px"
	 viewBox="0 0 250 250" style="enable-background:new 0 0 250 250;" xml:space="preserve">
<style type="text/css">
	.st0{fill:#07108F;}
</style>
<g>
	<g>
		<path class="st0" d="M183.33,33.14c28.81,0,44.35,29.15,44.35,56.58c0,25.59-13.53,75.36-102.69,125.19
			C35.84,165.08,22.31,115.3,22.31,89.72c0-27.43,15.54-56.58,44.35-56.58c20.08,0,33.82,10.49,41.81,19.29
			c4.23,4.66,10.23,7.31,16.52,7.31c6.29,0,12.29-2.66,16.52-7.32C149.51,43.63,163.25,33.14,183.33,33.14 M183.33,10.82
			c-29.33,0-48.72,16.01-58.33,26.61c-9.62-10.59-29.01-26.61-58.33-26.61C26.65,10.82,0,48.03,0,89.72
			c0,31.19,15.73,91.95,121.06,148.47c1.23,0.66,2.58,0.99,3.94,0.99c1.35,0,2.71-0.33,3.94-0.99
			C234.27,181.67,250,120.91,250,89.72C250,47.07,222.56,10.82,183.33,10.82L183.33,10.82z"/>
	</g>
</g>
</svg>
