<?xml version="1.0" encoding="utf-8"?>
<!-- Generator: Adobe Illustrator 24.0.1, SVG Export Plug-In . SVG Version: 6.00 Build 0)  -->
<svg version="1.1" id="Слой_1" xmlns="http://www.w3.org/2000/svg" xmlns:xlink="http://www.w3.org/1999/xlink" x="0px" y="0px"
	 viewBox="0 0 250 250" style="enable-background:new 0 0 250 250;" xml:space="preserve">
<style type="text/css">
	.st0{fill:#747D8C;}
	.st1{fill:#0042FF;}
</style>
<path class="st0" d="M241.4-1.4H9.6C4.2-1.4-0.2,3-0.2,8.4c0,27.3,11.7,53.4,32.2,71.6l43,38.2c7.5,6.6,11.7,16.2,11.7,26.1v95.8
	c0,7.8,8.7,12.5,15.3,8.2l57.9-38.6c2.7-1.8,4.4-4.9,4.4-8.2v-57.1c0-10,4.3-19.5,11.7-26.1l43-38.2c20.4-18.2,32.2-44.3,32.2-71.6
	C251.2,3,246.8-1.4,241.4-1.4z M206,65.4l-43,38.2c-11.6,10.4-18.3,25.2-18.3,40.8v51.9l-38.3,25.5v-77.4c0-15.6-6.7-30.5-18.3-40.8
	L45,65.4c-13.8-12.3-22.6-29-24.9-47.1h210.8C228.6,36.3,219.8,53.1,206,65.4z"/>
<g>
	<path class="st1" d="M92.6,50.6H66.7c-5.4,0-9.8-4.4-9.8-9.8v0c0-5.4,4.4-9.8,9.8-9.8h25.9c5.4,0,9.8,4.4,9.8,9.8v0
		C102.4,46.2,98,50.6,92.6,50.6z"/>
</g>
</svg>
