<?xml version="1.0" encoding="utf-8"?>
<!-- Generator: Adobe Illustrator 24.0.1, SVG Export Plug-In . SVG Version: 6.00 Build 0)  -->
<svg version="1.1" id="Слой_1" xmlns="http://www.w3.org/2000/svg" xmlns:xlink="http://www.w3.org/1999/xlink" x="0px" y="0px"
	 viewBox="0 0 250 250" style="enable-background:new 0 0 250 250;" xml:space="preserve">
<style type="text/css">
	.st0{fill:#0042FF;}
	.st1{fill:#747D8C;}
</style>
<g>
	<g>
		<path class="st0" d="M136.45,98.71"/>
	</g>
</g>
<path class="st1" d="M83.91,20.58c16.76,0,31.38,11.91,34.75,28.32c0.11,0.53,0.25,1.05,0.42,1.55H97.61
	c-17.65,0-32.34-12.96-35.04-29.86H83.91 M81.76,75.39c13.78,0,21.95,7.09,26.33,10.9c1.44,1.25,2.69,2.34,4.2,3.23
	c1.95,1.15,4.14,1.73,6.34,1.73c1.97,0,3.95-0.47,5.76-1.41c0.58-0.3,1.13-0.64,1.64-1.02c0.06,0.03,0.11,0.07,0.17,0.1
	c1.93,1.1,4.06,1.65,6.2,1.65c2.41,0,4.81-0.7,6.88-2.07c0.75-0.42,2.26-1.32,3.73-2.87c5.47-5.79,15.04-9.25,25.59-9.25
	c4.01,0,8.01,0.5,11.91,1.48c15.85,3.99,26.91,14.84,31.14,30.55c4.03,14.97,4.64,33.21,1.66,50.06
	c-6.9,39.14-29.91,70.98-51.31,70.98c-3.54,0-6.94-0.87-10.12-2.6c-8.18-4.42-17.47-6.76-26.88-6.76c-9.41,0-18.7,2.34-26.86,6.76
	c-3.19,1.72-6.59,2.6-10.12,2.6c-21.39,0-44.41-31.84-51.31-70.98c-3.08-17.47-2.32-36.27,2.1-51.57
	c4.35-15.08,16.18-26.31,31.65-30.06C74.37,75.87,78.17,75.39,81.76,75.39 M83.91,8.12H56.51c-3.78,0-6.85,3.06-6.85,6.85
	c0,26.43,21.51,47.93,47.94,47.93h24.33c-1.79,5.03-2.89,10.35-3.31,15.88c-3.07-1.81-14.57-15.85-36.87-15.85
	c-4.33,0-9.07,0.53-14.24,1.78c-19.86,4.81-35.07,19.28-40.68,38.71c-4.93,17.06-5.81,37.91-2.4,57.19
	c7.9,44.85,35.24,81.27,63.57,81.27c5.63,0,11.02-1.38,16.05-4.1c6.48-3.51,13.71-5.26,20.93-5.26c7.23,0,14.47,1.76,20.95,5.26
	c5.01,2.72,10.41,4.1,16.05,4.1c28.34,0,55.67-36.43,63.57-81.28c3.28-18.59,2.59-38.8-1.9-55.46c-5.38-19.96-20-34.32-40.12-39.39
	c-4.97-1.25-10.02-1.86-14.95-1.86c-13.76,0-26.66,4.69-34.65,13.16c-0.44,0.46-1.05,0.67-1.55,1.04
	c2.7-23.89,22.8-42.59,47.4-42.59c3.79,0,6.85-3.06,6.85-6.85s-3.06-6.85-6.85-6.85c-20.02,0-37.66,9.74-48.92,24.57
	C126.37,24.57,107.03,8.12,83.91,8.12L83.91,8.12z"/>
</svg>
