<!-- Generated by IcoMoon.io -->
<svg version="1.1" xmlns="http://www.w3.org/2000/svg" width="1024" height="1024" viewBox="0 0 1024 1024">
<title></title>
<g id="icomoon-ignore">
</g>
<path fill="#fff" d="M343.695 84.296c68.649 0 128.532 48.783 142.336 115.999 0.451 2.171 1.024 4.301 1.72 6.349h-87.941c-72.294 0-132.465-53.084-143.524-122.307h87.409zM334.889 308.797c56.443 0 89.907 29.041 107.848 44.646 5.898 5.12 11.018 9.585 17.203 13.23 7.987 4.71 16.957 7.086 25.969 7.086 8.069 0 16.179-1.925 23.593-5.775 2.376-1.229 4.628-2.621 6.717-4.178 0.246 0.123 0.451 0.287 0.696 0.41 7.905 4.506 16.63 6.758 25.395 6.758 9.871 0 19.702-2.867 28.18-8.479 3.072-1.72 9.257-5.407 15.278-11.756 22.405-23.716 61.604-37.888 104.817-37.888 16.425 0 32.809 2.048 48.783 6.062 64.922 16.343 110.223 60.785 127.549 125.133 16.507 61.317 19.005 136.028 6.799 205.046-28.262 160.317-122.511 290.734-210.166 290.734-14.5 0-28.426-3.564-41.452-10.65-33.505-18.104-71.557-27.689-110.1-27.689s-76.595 9.585-110.019 27.689c-13.066 7.045-26.993 10.65-41.452 10.65-87.613 0-181.903-130.417-210.166-290.734-12.616-71.557-9.503-148.562 8.602-211.231 17.818-61.768 66.273-107.766 129.638-123.126 16.015-3.973 31.58-5.939 46.285-5.939zM343.695 33.26h-112.23c-15.483 0-28.058 12.534-28.058 28.058 0 108.257 88.105 196.321 196.362 196.321h99.656c-7.332 20.603-11.837 42.394-13.558 65.044-12.575-7.414-59.679-64.922-151.020-64.922-17.736 0-37.151 2.171-58.327 7.291-81.347 19.702-143.647 78.971-166.625 158.556-20.193 69.878-23.798 155.279-9.83 234.25 32.358 183.706 144.343 332.882 260.383 332.882 23.060 0 45.138-5.652 65.741-16.794 26.542-14.377 56.156-21.545 85.729-21.545 29.614 0 59.269 7.209 85.811 21.545 20.521 11.141 42.639 16.794 65.741 16.794 116.081 0 228.024-149.217 260.383-332.923 13.435-76.145 10.609-158.925-7.782-227.164-22.036-81.756-81.92-140.575-164.332-161.341-20.357-5.12-41.042-7.619-61.235-7.619-56.361 0-109.199 19.21-141.926 53.903-1.802 1.884-4.301 2.744-6.349 4.26 11.059-97.853 93.389-174.449 194.15-174.449 15.524 0 28.058-12.534 28.058-28.058s-12.534-28.058-28.058-28.058c-82.002 0-154.255 39.895-200.376 100.639-18.391-89.293-97.608-156.672-192.307-156.672v0z"></path>
</svg>
