<?xml version="1.0" encoding="utf-8"?>
<!-- Generator: Adobe Illustrator 24.0.1, SVG Export Plug-In . SVG Version: 6.00 Build 0)  -->
<svg version="1.1" id="Слой_1" xmlns="http://www.w3.org/2000/svg" xmlns:xlink="http://www.w3.org/1999/xlink" x="0px" y="0px"
	 viewBox="0 0 250 250" style="enable-background:new 0 0 250 250;" xml:space="preserve">
<style type="text/css">
	.st0{fill:#0042FF;}
	.st1{fill:#747D8C;}
</style>
<g>
	<g>
		<path class="st0" d="M136.87,98.96"/>
	</g>
</g>
<g>
	<g>
		<g>
			<path class="st1" d="M248.23,156.08c-0.61-14.14-3.07-29.81-6.76-44.56c-3.69-14.14-8.3-27.35-13.83-37.49
				c-21.51-37.8-44.87-31.96-72.83-24.58c-8.91,2.15-18.44,4.61-28.27,5.53h-3.07c-9.83-0.92-19.36-3.38-28.27-5.53
				c-27.96-7.07-51.32-13.21-72.83,24.89C16.83,84.48,11.91,97.7,8.53,111.83c-3.69,14.75-6.15,30.42-6.76,44.56
				c-0.61,15.67,0.92,27.04,4.3,35.03c3.38,7.38,8.3,11.98,14.75,13.83c5.84,1.54,12.6,0.92,19.67-2.15
				c11.98-4.92,25.81-15.36,39.33-27.96c9.53-9.22,27.35-13.83,45.17-13.83s35.65,4.61,45.17,13.83
				c13.52,12.6,27.35,23.05,39.33,27.96c7.07,2.77,13.83,3.69,19.67,2.15c6.15-1.84,11.37-6.15,14.75-14.14
				C247.3,183.43,248.84,172.06,248.23,156.08z M233.48,186.81c-1.84,4.3-4.3,6.76-7.38,7.68c-3.38,0.92-7.68,0.31-12.6-1.54
				c-10.76-4.3-23.35-13.83-35.65-25.51c-11.68-11.68-32.27-17.52-52.86-17.52s-41.18,5.84-53.16,16.9
				c-12.6,11.68-25.2,21.51-35.65,25.51c-4.92,1.84-9.22,2.77-12.6,1.54c-3.07-0.92-5.53-3.38-7.38-7.68
				c-2.46-5.84-3.69-15.36-3.07-29.5c0.61-13.21,2.77-28.27,6.45-42.41c3.38-13.21,7.68-25.51,12.91-34.72
				c16.9-30.42,36.57-25.51,59.92-19.36c9.53,2.46,19.36,4.92,30.12,5.84c0.31,0,0.31,0,0.61,0h3.38c0.31,0,0.31,0,0.61,0
				c11.06-0.92,20.9-3.38,30.42-5.84c23.35-5.84,43.02-11.06,59.92,19.36c5.22,9.22,9.53,21.2,12.91,34.72
				c3.38,14.14,5.84,28.89,6.45,42.41C237.47,170.83,236.24,180.36,233.48,186.81z"/>
			<path class="st1" d="M27.24,207.6c-2.34,0-4.62-0.29-6.8-0.86c-6.91-1.97-12.2-6.91-15.76-14.68c-3.6-8.52-5.05-20.19-4.44-35.73
				c0.6-13.78,3.02-29.72,6.81-44.87c3.36-14.05,8.32-27.5,13.97-37.85C42.99,34.68,67.14,40.76,95.1,47.84l2.81,0.69
				c8.28,2.01,16.84,4.09,25.7,4.92l2.93,0c8.72-0.83,17.28-2.91,25.55-4.92l2.36-0.57c28.03-7.39,52.27-13.79,74.52,25.32
				c5.22,9.56,9.92,22.29,13.99,37.86c3.79,15.17,6.21,31.11,6.81,44.88c0,0,0,0.01,0,0.01c0.61,15.87-0.84,27.55-4.43,35.71
				c-3.3,7.8-8.59,12.85-15.71,14.99c-5.99,1.58-12.93,0.84-20.67-2.19c-11.25-4.61-24.64-14.12-39.82-28.27
				c-8.56-8.28-25.46-13.41-44.13-13.41s-35.56,5.14-44.1,13.4c-15.21,14.17-28.6,23.68-39.82,28.28
				C36.39,206.56,31.69,207.6,27.24,207.6z M64.89,45.69c-14.92,0-28.28,6.55-41.19,29.41c-5.51,10.1-10.37,23.28-13.67,37.09
				c-3.74,14.98-6.13,30.69-6.72,44.27c-0.59,15.07,0.78,26.31,4.18,34.36c3.2,6.97,7.7,11.22,13.76,12.95
				c5.63,1.48,12.09,0.77,18.63-2.08c10.75-4.41,24.2-13.98,38.9-27.68c9.21-8.91,26.49-14.24,46.22-14.24s37.01,5.33,46.24,14.26
				c14.68,13.68,28.12,23.25,38.85,27.65c7.1,2.78,13.4,3.48,18.7,2.08c6.15-1.85,10.79-6.31,13.72-13.25
				c3.41-7.74,4.77-18.98,4.18-34.36l0,0c-0.59-13.58-2.98-29.3-6.72-44.25c-3.99-15.31-8.6-27.81-13.69-37.12
				c-21.06-37.02-43.14-31.21-71.09-23.83l-2.38,0.57c-8.38,2.04-17.05,4.15-26.14,5l-3.21,0c-9.23-0.86-17.9-2.96-26.28-5.01
				l-2.84-0.69C83.77,48.15,74.03,45.69,64.89,45.69z M222.7,196.45c-2.84,0-6.1-0.69-9.74-2.05
				c-10.15-4.06-22.65-12.99-36.16-25.83c-10.71-10.71-30.07-17.1-51.8-17.1c-21.45,0-40.93,6.17-52.12,16.49
				c-14.82,13.74-26.64,22.18-36.14,25.82c-6.11,2.28-10.32,2.76-13.67,1.54c-3.53-1.06-6.26-3.86-8.26-8.52
				c-2.71-6.44-3.79-16.59-3.2-30.18c0.65-13.97,2.96-29.15,6.5-42.72c3.73-14.58,8.13-26.39,13.06-35.1
				c17.6-31.67,39-26.04,61.65-20.09c10.26,2.65,19.59,4.92,29.85,5.8l4.48,0c10.42-0.87,19.78-3.14,30.04-5.79l0.62-0.15
				c23.44-5.86,43.71-10.93,61.03,20.26c5.08,8.96,9.48,20.78,13.06,35.1c3.68,15.4,5.92,30.16,6.49,42.71
				c0.6,13.81-0.54,23.89-3.5,30.79c-1.99,4.67-4.72,7.46-8.34,8.55C225.36,196.29,224.08,196.45,222.7,196.45z M125,148.4
				c22.53,0,42.69,6.71,53.94,17.97c13.21,12.55,25.37,21.26,35.13,25.16c4.75,1.78,8.67,2.29,11.63,1.48
				c2.66-0.79,4.75-3.02,6.36-6.8c0,0,0,0,0,0c2.77-6.47,3.84-16.1,3.26-29.44c-0.56-12.36-2.78-26.92-6.41-42.12
				c-3.51-14.04-7.8-25.59-12.75-34.32c-16.19-29.15-34.48-24.57-57.6-18.78l-0.6,0.15c-10.39,2.69-19.88,4.98-30.67,5.88l-4.74,0
				c-10.64-0.9-20.1-3.2-30.5-5.89C68.72,55.56,50.3,50.72,33.85,80.31c-4.81,8.48-9.1,20.04-12.76,34.36
				c-3.49,13.38-5.77,28.33-6.41,42.1c-0.57,13.12,0.42,22.82,2.96,28.83c1.62,3.77,3.71,6,6.4,6.81c2.7,0.98,6.26,0.51,11.62-1.51
				c9.11-3.49,20.61-11.73,35.14-25.19C82.53,154.87,102.8,148.4,125,148.4z"/>
		</g>
	</g>
</g>
<g>
	<g>
		<path class="st0" d="M96.73,96.16c-3.07-2.77-6.76-4.92-11.06-5.22c-0.31-3.99-2.15-7.99-4.92-10.76l-0.31-0.31
			c-3.38-3.38-7.68-5.22-12.6-5.22s-9.53,2.15-12.6,5.22c-2.77,2.77-4.92,6.76-5.22,11.06c-4.3,0.31-7.99,2.15-11.06,4.92
			l-0.31,0.31c-3.38,3.38-5.22,7.68-5.22,12.6s2.15,9.53,5.22,12.6c3.07,3.07,6.76,4.92,11.37,5.22c0.31,4.3,2.15,8.3,5.22,11.06
			c3.38,3.38,7.68,5.22,12.6,5.22s9.53-2.15,12.6-5.22c2.77-3.07,4.92-6.76,5.22-11.06c4.3-0.31,8.3-2.15,11.06-5.22
			c3.38-3.38,5.22-7.68,5.22-12.6S99.8,99.23,96.73,96.16z M89.05,113.37c-1.23,1.23-2.77,1.84-4.61,1.84h-4.3
			c-3.07,0-5.84,2.46-5.84,5.84v3.99c0,1.84-0.61,3.38-1.84,4.61c-1.23,1.23-2.77,1.84-4.61,1.84s-3.38-0.61-4.61-1.84
			s-1.84-2.77-1.84-4.61v-4.3c0-3.07-2.46-5.84-5.84-5.84h-4.3c-1.84,0-3.38-0.61-4.61-1.84c-0.92-0.92-1.84-2.46-1.84-4.3
			c0-1.84,0.61-3.38,1.84-4.61c0,0,0,0,0.31-0.31c1.23-0.92,2.77-1.54,4.3-1.54h4.3c3.07,0,5.84-2.46,5.84-5.84v-4.3
			c0-1.84,0.61-3.38,1.84-4.61c1.23-1.23,2.77-1.84,4.61-1.84s3.38,0.61,4.61,1.84c0,0,0,0,0.31,0.31c0.92,1.23,1.54,2.77,1.54,4.3
			v4.3c0,3.07,2.46,5.84,5.84,5.84h4.3c1.84,0,3.38,0.61,4.61,1.84c1.23,1.23,1.84,2.77,1.84,4.61
			C90.89,110.6,90.28,112.14,89.05,113.37z"/>
	</g>
</g>
<g>
	<g>
		<circle class="st0" cx="178.47" cy="86.94" r="10.76"/>
	</g>
</g>
<g>
	<g>
		<circle class="st0" cx="178.47" cy="130.58" r="10.76"/>
	</g>
</g>
<g>
	<g>
		<circle class="st0" cx="156.65" cy="108.76" r="10.76"/>
	</g>
</g>
<g>
	<g>
		<circle class="st0" cx="200.29" cy="108.76" r="10.76"/>
	</g>
</g>
</svg>
