<!-- Generated by IcoMoon.io -->
<svg version="1.1" xmlns="http://www.w3.org/2000/svg" width="1024" height="1024" viewBox="0 0 1024 1024">
<title></title>
<g id="icomoon-ignore">
</g>
<path fill="#fff" d="M1016.75 639.304c-2.499-57.917-12.575-122.102-27.689-182.518-15.114-57.917-33.997-112.026-56.648-153.559-88.105-154.829-183.788-130.908-298.312-100.68-36.495 8.806-75.53 18.883-115.794 22.651h-12.575c-40.264-3.768-79.299-13.844-115.794-22.651-114.524-28.959-210.207-54.108-298.312 101.949-22.692 41.533-42.844 95.683-56.689 153.559-15.114 60.416-25.19 124.6-27.689 182.518-2.499 64.184 3.768 110.756 17.613 143.483 13.844 30.228 33.997 49.070 60.416 56.648 23.921 6.308 51.61 3.768 80.568-8.806 49.070-20.152 105.718-62.915 161.096-114.524 39.035-37.765 112.026-56.648 185.016-56.648s146.022 18.883 185.016 56.648c55.378 51.61 112.026 94.413 161.096 114.524 28.959 11.346 56.648 15.114 80.568 8.806 25.19-7.537 46.572-25.19 60.416-57.917 13.885-31.457 20.193-78.029 17.695-143.483zM956.334 765.174c-7.537 17.613-17.613 27.689-30.228 31.457-13.844 3.768-31.457 1.27-51.61-6.308-44.073-17.613-95.642-56.648-146.022-104.489-47.841-47.841-132.178-71.762-216.515-71.762s-168.673 23.921-217.743 69.222c-51.61 47.841-103.219 88.105-146.022 104.489-20.152 7.537-37.765 11.346-51.61 6.308-12.575-3.768-22.651-13.844-30.228-31.457-10.076-23.921-15.114-62.915-12.575-120.832 2.499-54.108 11.346-115.794 26.419-173.711 13.844-54.108 31.457-104.489 52.879-142.213 69.222-124.6 149.791-104.489 245.432-79.299 39.035 10.076 79.299 20.152 123.372 23.921 1.27 0 1.27 0 2.499 0h13.844c1.27 0 1.27 0 2.499 0 45.302-3.768 85.606-13.844 124.6-23.921 95.642-23.921 176.21-45.302 245.432 79.299 21.381 37.765 39.035 86.835 52.879 142.213 13.844 57.917 23.921 118.333 26.419 173.711 2.621 57.917-2.417 96.952-13.722 123.372z"></path>
<path fill="#fff" d="M111.575 850.33c-9.585 0-18.924-1.188-27.853-3.523-28.303-8.069-49.971-28.303-64.553-60.129-14.746-34.898-20.685-82.698-18.186-146.35 2.458-56.443 12.37-121.733 27.894-183.788 13.763-57.549 34.079-112.64 57.221-155.034 89.989-159.457 188.908-134.554 303.432-105.554l11.51 2.826c33.915 8.233 68.977 16.753 105.267 20.152h12.001c35.717-3.4 70.779-11.919 104.653-20.152l9.667-2.335c114.811-30.269 214.098-56.484 305.234 103.711 21.381 39.158 40.632 91.3 57.303 155.075 15.524 62.136 25.436 127.427 27.894 183.828 0 0 0 0.041 0 0.041 2.499 65.004-3.441 112.845-18.145 146.268-13.517 31.949-35.185 52.634-64.348 61.399-24.535 6.472-52.961 3.441-84.664-8.97-46.080-18.883-100.925-57.836-163.103-115.794-35.062-33.915-104.284-54.927-180.756-54.927s-145.654 21.053-180.634 54.886c-62.3 58.040-117.146 96.993-163.103 115.835-19.251 8.274-38.502 12.534-56.73 12.534zM265.789 187.146c-61.112 0-115.835 26.829-168.714 120.463-22.569 41.37-42.476 95.355-55.992 151.921-15.319 61.358-25.108 125.706-27.525 181.33-2.417 61.727 3.195 107.766 17.121 140.739 13.107 28.549 31.539 45.957 56.361 53.043 23.060 6.062 49.521 3.154 76.308-8.52 44.032-18.063 99.123-57.262 159.334-113.377 37.724-36.495 108.503-58.327 189.317-58.327s151.593 21.832 189.399 58.409c60.129 56.033 115.18 95.232 159.13 113.254 29.082 11.387 54.886 14.254 76.595 8.52 25.19-7.578 44.196-25.846 56.197-54.272 13.967-31.703 19.538-77.742 17.121-140.739v0c-2.417-55.624-12.206-120.013-27.525-181.248-16.343-62.71-35.226-113.91-56.074-152.044-86.262-151.634-176.701-127.836-291.185-97.608l-9.748 2.335c-34.324 8.356-69.837 16.998-107.069 20.48h-13.148c-37.806-3.523-73.318-12.124-107.643-20.521l-11.633-2.826c-43.295-10.936-83.19-21.012-120.627-21.012zM912.179 804.659c-11.633 0-24.986-2.826-39.895-8.397-41.574-16.63-92.774-53.207-148.111-105.8-43.868-43.868-123.167-70.042-212.173-70.042-87.859 0-167.649 25.272-213.484 67.543-60.703 56.279-109.117 90.849-148.029 105.759-25.027 9.339-42.271 11.305-55.992 6.308-14.459-4.342-25.641-15.811-33.833-34.898-11.1-26.378-15.524-67.953-13.107-123.617 2.662-57.221 12.124-119.398 26.624-174.981 15.278-59.72 33.3-108.093 53.494-143.77 72.090-129.72 159.744-106.66 252.518-82.289 42.025 10.854 80.241 20.152 122.266 23.757h18.35c42.68-3.564 81.019-12.861 123.044-23.716l2.54-0.614c96.010-24.003 179.036-44.769 249.979 82.985 20.808 36.7 38.83 85.115 53.494 143.77 15.073 63.078 24.248 123.535 26.583 174.94 2.458 56.566-2.212 97.853-14.336 126.116-8.151 19.128-19.333 30.556-34.161 35.021-4.874 1.27-10.117 1.925-15.77 1.925zM512 607.846c92.283 0 174.858 27.484 220.938 73.605 54.108 51.405 103.916 87.081 143.892 103.055 19.456 7.291 35.512 9.38 47.636 6.062 10.895-3.236 19.456-12.37 26.051-27.853 0 0 0 0 0 0 11.346-26.501 15.729-65.946 13.353-120.586-2.294-50.627-11.387-110.264-26.255-172.524-14.377-57.508-31.949-104.817-52.224-140.575-66.314-119.398-141.23-100.639-235.93-76.923l-2.458 0.614c-42.557 11.018-81.428 20.398-125.624 24.084h-19.415c-43.581-3.686-82.33-13.107-124.928-24.125-95.56-25.108-171.008-44.933-238.387 76.268-19.702 34.734-37.274 82.084-52.265 140.739-14.295 54.804-23.634 116.040-26.255 172.442-2.335 53.74 1.72 93.471 12.124 118.088 6.636 15.442 15.196 24.576 26.214 27.894 11.059 4.014 25.641 2.089 47.596-6.185 37.315-14.295 84.419-48.046 143.933-103.178 48.046-44.401 131.072-70.902 222.003-70.902z"></path>
<path fill="#fff" d="M396.206 393.871c-12.575-11.346-27.689-20.152-45.302-21.381-1.27-16.343-8.806-32.727-20.152-44.073l-1.27-1.27c-13.844-13.844-31.457-21.381-51.61-21.381s-39.035 8.806-51.61 21.381c-11.346 11.346-20.152 27.689-21.381 45.302-17.613 1.27-32.727 8.806-45.302 20.152l-1.27 1.27c-13.844 13.844-21.381 31.457-21.381 51.61s8.806 39.035 21.381 51.61c12.575 12.575 27.689 20.152 46.572 21.381 1.27 17.613 8.806 33.997 21.381 45.302 13.844 13.844 31.457 21.381 51.61 21.381s39.035-8.806 51.61-21.381c11.346-12.575 20.152-27.689 21.381-45.302 17.613-1.27 33.997-8.806 45.302-21.381 13.844-13.844 21.381-31.457 21.381-51.61s-8.765-39.035-21.34-51.61zM364.749 464.364c-5.038 5.038-11.346 7.537-18.883 7.537h-17.613c-12.575 0-23.921 10.076-23.921 23.921v16.343c0 7.537-2.499 13.844-7.537 18.883s-11.346 7.537-18.883 7.537-13.844-2.499-18.883-7.537-7.537-11.346-7.537-18.883v-17.613c0-12.575-10.076-23.921-23.921-23.921h-17.613c-7.537 0-13.844-2.499-18.883-7.537-3.768-3.768-7.537-10.076-7.537-17.613s2.499-13.844 7.537-18.883c0 0 0 0 1.27-1.27 5.038-3.768 11.346-6.308 17.613-6.308h17.613c12.575 0 23.921-10.076 23.921-23.921v-17.613c0-7.537 2.499-13.844 7.537-18.883s11.346-7.537 18.883-7.537 13.844 2.499 18.883 7.537c0 0 0 0 1.27 1.27 3.768 5.038 6.308 11.346 6.308 17.613v17.613c0 12.575 10.076 23.921 23.921 23.921h17.613c7.537 0 13.844 2.499 18.883 7.537s7.537 11.346 7.537 18.883c-0.041 7.578-2.54 13.885-7.578 18.924z"></path>
<path fill="#fff" d="M775.086 356.106c0 24.341-19.732 44.073-44.073 44.073s-44.073-19.732-44.073-44.073c0-24.341 19.732-44.073 44.073-44.073s44.073 19.732 44.073 44.073z"></path>
<path fill="#fff" d="M775.086 534.856c0 24.341-19.732 44.073-44.073 44.073s-44.073-19.732-44.073-44.073c0-24.341 19.732-44.073 44.073-44.073s44.073 19.732 44.073 44.073z"></path>
<path fill="#fff" d="M685.711 445.481c0 24.341-19.732 44.073-44.073 44.073s-44.073-19.732-44.073-44.073c0-24.341 19.732-44.073 44.073-44.073s44.073 19.732 44.073 44.073z"></path>
<path fill="#fff" d="M864.461 445.481c0 24.341-19.732 44.073-44.073 44.073s-44.073-19.732-44.073-44.073c0-24.341 19.732-44.073 44.073-44.073s44.073 19.732 44.073 44.073z"></path>
</svg>
