<?xml version="1.0" encoding="utf-8"?>
<!-- Generator: Adobe Illustrator 24.0.1, SVG Export Plug-In . SVG Version: 6.00 Build 0)  -->
<svg version="1.1" id="Слой_1" xmlns="http://www.w3.org/2000/svg" xmlns:xlink="http://www.w3.org/1999/xlink" x="0px" y="0px"
	 viewBox="0 0 250 250" style="enable-background:new 0 0 250 250;" xml:space="preserve">
<style type="text/css">
	.st0{fill:#A5B1C2;}
</style>
<path class="st0" d="M172.07,146.26c-5.76,0-11.5-2.34-15.69-6.95L62.25,35.55c-7.86-8.67-7.22-22.05,1.45-29.92
	c8.66-7.86,22.05-7.22,29.92,1.45l94.14,103.76c7.86,8.67,7.2,22.05-1.46,29.92C182.24,144.44,177.15,146.26,172.07,146.26z"/>
<path class="st0" d="M77.93,250c-5.07,0-10.17-1.82-14.22-5.49c-8.67-7.86-9.32-21.26-1.45-29.92l94.12-103.76
	c7.89-8.68,21.26-9.32,29.92-1.45c8.66,7.86,9.32,21.25,1.46,29.92L93.62,243.05C89.44,247.66,83.69,250,77.93,250z"/>
</svg>
