<!-- Generated by IcoMoon.io -->
<svg version="1.1" xmlns="http://www.w3.org/2000/svg" width="1024" height="1024" viewBox="0 0 1024 1024">
<title></title>
<g id="icomoon-ignore">
</g>
<path fill="#fff" d="M704.799 599.081c-23.593 0-47.104-9.585-64.266-28.467l-385.556-425.001c-32.195-35.512-29.573-90.317 5.939-122.552 35.471-32.195 90.317-29.573 122.552 5.939l385.597 425.001c32.195 35.512 29.491 90.317-5.98 122.552-16.63 15.073-37.478 22.528-58.286 22.528z"></path>
<path fill="#fff" d="M319.201 1024c-20.767 0-41.656-7.455-58.245-22.487-35.512-32.195-38.175-87.081-5.939-122.552l385.516-425.001c32.317-35.553 87.081-38.175 122.552-5.939 35.471 32.195 38.175 87.040 5.98 122.552l-385.597 424.96c-17.121 18.883-40.673 28.467-64.266 28.467z"></path>
</svg>
