<?xml version="1.0" encoding="utf-8"?>
<!-- Generator: Adobe Illustrator 24.0.1, SVG Export Plug-In . SVG Version: 6.00 Build 0)  -->
<svg version="1.1" id="Слой_1" xmlns="http://www.w3.org/2000/svg" xmlns:xlink="http://www.w3.org/1999/xlink" x="0px" y="0px"
	 viewBox="0 0 250 250" style="enable-background:new 0 0 250 250;" xml:space="preserve">
<style type="text/css">
	.st0{fill:#747D8C;}
	.st1{fill:#0042FF;}
</style>
<g>
	<g>
		<path class="st0" d="M223.61,38.66c-12.07-12.2-28.37-18.95-45.91-19c-18.05-0.06-36.14,6.78-50.63,18.94
			c-16.48-14.51-31.39-21.59-45.43-21.59c-19.61,0-37.8,7.72-51.1,21.62c-10,10-16.85,23.12-19.82,37.96c-0.89,4.46,2,8.8,6.46,9.69
			c4.45,0.88,8.8-2,9.69-6.46c2.33-11.64,7.62-21.86,15.44-29.67C52.6,39.4,66.57,33.48,81.64,33.48c10.92,0,24.15,7.36,39.18,21.72
			c1.68,1.69,3.9,2.63,6.24,2.63c0,0,0.01,0,0.01,0c2.33,0,4.54-0.93,6.23-2.62c12.13-12.13,28.24-19.08,44.21-19.08
			c0.05,0,0.1,0,0.15,0c13.31,0.04,25.15,4.92,34.16,14.02c10.56,11.03,16.38,25.48,16.38,40.68c0,15.22-5.95,30.03-16.15,40.46
			l-84.84,82.02l-67.28-65c-3.27-3.16-8.48-3.06-11.64,0.2c-3.16,3.27-3.07,8.48,0.2,11.64l73,70.53c1.59,1.54,3.66,2.31,5.72,2.31
			c2.06,0,4.12-0.77,5.72-2.31l90.73-87.71c13.35-13.65,21.01-32.65,21.01-52.14C244.65,71.36,237.21,52.87,223.61,38.66z"/>
	</g>
</g>
<g>
	<g>
		<path class="st1" d="M229.83,109.77h-66.41c-2.27,0-4.43,0.93-5.98,2.58l-24.97,26.4l-28.76-65.23c-1.23-2.8-3.92-4.69-6.98-4.89
			c-3.04-0.19-5.97,1.3-7.57,3.91l-22.84,37.24H13.58c-4.55,0-8.23,3.69-8.23,8.23c0,4.55,3.69,8.23,8.23,8.23h57.35
			c2.86,0,5.52-1.49,7.02-3.93l17.04-27.77l27.42,62.19c1.11,2.52,3.41,4.32,6.13,4.79c0.47,0.08,0.94,0.12,1.4,0.12
			c2.24,0,4.42-0.92,5.98-2.57l31.04-32.83h62.87c4.55,0,8.23-3.69,8.23-8.23C238.07,113.45,234.38,109.77,229.83,109.77z"/>
	</g>
</g>
</svg>
