<!-- Generated by IcoMoon.io -->
<svg version="1.1" xmlns="http://www.w3.org/2000/svg" width="1024" height="1024" viewBox="0 0 1024 1024">
<title>home</title>
<g id="icomoon-ignore">
</g>
<path fill="#fff" d="M915.907 158.351c-49.439-49.971-116.204-77.619-188.047-77.824-73.933-0.246-148.029 27.771-207.38 77.578-67.502-59.433-128.573-88.433-186.081-88.433-80.323 0-154.829 31.621-209.306 88.556-40.96 40.96-69.018 94.7-81.183 155.484-3.645 18.268 8.192 36.045 26.46 39.69 18.227 3.604 36.045-8.192 39.69-26.46 9.544-47.677 31.212-89.539 63.242-121.528 42.148-44.032 99.369-68.28 161.096-68.28 44.728 0 98.918 30.147 160.481 88.965 6.881 6.922 15.974 10.772 25.559 10.772 0 0 0.041 0 0.041 0 9.544 0 18.596-3.809 25.518-10.732 49.684-49.684 115.671-78.152 181.084-78.152 0.205 0 0.41 0 0.614 0 54.518 0.164 103.014 20.152 139.919 57.426 43.254 45.179 67.092 104.366 67.092 166.625 0 62.341-24.371 123.003-66.15 165.724l-347.505 335.954-275.579-266.24c-13.394-12.943-34.734-12.534-47.677 0.819-12.943 13.394-12.575 34.734 0.819 47.677l299.008 288.891c6.513 6.308 14.991 9.462 23.429 9.462s16.876-3.154 23.429-9.462l371.63-359.26c54.682-55.91 86.057-133.734 86.057-213.565-0.082-79.749-30.556-155.484-86.262-213.688z"></path>
<path fill="#fff" d="M941.384 449.618h-272.015c-9.298 0-18.145 3.809-24.494 10.568l-102.277 108.134-117.801-267.182c-5.038-11.469-16.056-19.21-28.59-20.029-12.452-0.778-24.453 5.325-31.007 16.015l-93.553 152.535h-216.023c-18.637 0-33.71 15.114-33.71 33.71 0 18.637 15.114 33.71 33.71 33.71h234.906c11.715 0 22.61-6.103 28.754-16.097l69.796-113.746 112.312 254.73c4.547 10.322 13.967 17.695 25.108 19.62 1.925 0.328 3.85 0.492 5.734 0.492 9.175 0 18.104-3.768 24.494-10.527l127.14-134.472h257.516c18.637 0 33.71-15.114 33.71-33.71 0.041-18.678-15.073-33.751-33.71-33.751z"></path>
</svg>
