<?xml version="1.0" encoding="utf-8"?>
<!-- Generator: Adobe Illustrator 24.0.1, SVG Export Plug-In . SVG Version: 6.00 Build 0)  -->
<svg version="1.1" id="Слой_1" xmlns="http://www.w3.org/2000/svg" xmlns:xlink="http://www.w3.org/1999/xlink" x="0px" y="0px"
	 viewBox="0 0 250 250" style="enable-background:new 0 0 250 250;" xml:space="preserve">
<style type="text/css">
	.st0{fill:#A5B1C2;}
</style>
<g>
	<path class="st0" d="M21.18,193.22c-5.77,0-11.51-2.34-15.69-6.95c-7.86-8.66-7.21-22.06,1.45-29.91l103.72-94.09
		c8.66-7.85,22.03-7.2,29.91,1.45c7.86,8.66,7.2,22.05-1.46,29.91L35.4,187.74C31.35,191.4,26.25,193.22,21.18,193.22z"/>
</g>
<g>
	<path class="st0" d="M228.83,193.22c-5.09,0-10.17-1.82-14.23-5.49L110.87,93.63c-8.66-7.86-9.31-21.24-1.45-29.91
		c7.86-8.68,21.25-9.3,29.91-1.45l103.73,94.09c8.66,7.86,9.32,21.26,1.46,29.91C240.32,190.88,234.59,193.22,228.83,193.22z"/>
</g>
</svg>
