<?xml version="1.0" encoding="utf-8"?>
<!-- Generator: Adobe Illustrator 24.0.1, SVG Export Plug-In . SVG Version: 6.00 Build 0)  -->
<svg version="1.1" id="Слой_1" xmlns="http://www.w3.org/2000/svg" xmlns:xlink="http://www.w3.org/1999/xlink" x="0px" y="0px"
	 viewBox="0 0 250 250" style="enable-background:new 0 0 250 250;" xml:space="preserve">
<style type="text/css">
	.st0{fill:#0042FF;}
	.st1{fill:#747D8C;}
</style>
<g>
	<g>
		<g>
			<path class="st0" d="M205.49,65.38H44.51c-2.94,0-5.32,2.38-5.32,5.32v80.29c0,2.94,2.38,5.32,5.32,5.32s5.32-2.38,5.32-5.32
				V76.01h150.35v74.97l0,0c0,2.94,2.38,5.32,5.32,5.32c2.94,0,5.32-2.38,5.32-5.32V70.69C210.81,67.76,208.43,65.38,205.49,65.38z"
				/>
			<path class="st0" d="M205.49,157.8c-3.76,0-6.82-3.06-6.82-6.82V77.5H51.32v73.47c0,3.76-3.06,6.82-6.81,6.82
				s-6.81-3.06-6.81-6.82V70.69c0-3.76,3.05-6.81,6.81-6.81h160.98c3.76,0,6.81,3.06,6.81,6.81v80.28
				C212.3,154.73,209.25,157.8,205.49,157.8z M49.82,74.51h150.35c0.83,0,1.5,0.67,1.5,1.5v74.97c0,2.11,1.71,3.82,3.82,3.82
				c2.11,0,3.82-1.71,3.82-3.82V70.69c0-2.11-1.71-3.82-3.82-3.82H44.51c-2.1,0-3.82,1.71-3.82,3.82v80.28
				c0,2.11,1.71,3.82,3.82,3.82c2.11,0,3.82-1.71,3.82-3.82V76.01C48.32,75.18,48.99,74.51,49.82,74.51z"/>
		</g>
	</g>
</g>
<g>
	<g>
		<g>
			<path class="st1" d="M243.72,169.96h-9.79V58.33c0-8.86-7.21-16.07-16.07-16.07H32.14c-8.86,0-16.07,7.21-16.07,16.07v111.64
				H6.28c-2.64,0-4.78,2.14-4.78,4.78v9.39c0,13.01,10.59,23.6,23.6,23.6h199.8c13.01,0,23.6-10.59,23.6-23.6v-9.39
				C248.5,172.1,246.36,169.96,243.72,169.96z M26.7,58.33c0-3,2.44-5.44,5.44-5.44h185.71c3,0,5.44,2.44,5.44,5.44v111.64h-71.98
				c-0.34-0.01-0.69,0.02-1.04,0.08c-2.25,0.43-3.88,2.4-3.88,4.7c0,4.04-3.29,7.32-7.32,7.32h-28.15c-4.04,0-7.32-3.29-7.32-7.32
				c0-2.68-2.22-4.84-4.9-4.78h-72V58.33z M238.93,184.14L238.93,184.14c0,7.74-6.3,14.03-14.03,14.03H25.1
				c-7.74,0-14.03-6.3-14.03-14.03v-4.61h83.65c2.07,6.99,8.55,12.11,16.2,12.11h28.15c7.65,0,14.13-5.12,16.2-12.11h83.65
				L238.93,184.14L238.93,184.14z"/>
			<path class="st1" d="M224.9,209.24H25.1c-13.84,0-25.1-11.26-25.1-25.1v-9.39c0-3.46,2.82-6.28,6.28-6.28h8.29V58.33
				c0-9.68,7.88-17.56,17.57-17.56h185.71c9.68,0,17.57,7.88,17.57,17.56v110.14h8.29c3.46,0,6.28,2.82,6.28,6.28v9.39
				C250,197.98,238.74,209.24,224.9,209.24z M6.28,171.46c-1.81,0-3.29,1.47-3.29,3.29v9.39c0,12.19,9.92,22.1,22.1,22.1h199.8
				c12.19,0,22.11-9.91,22.11-22.1v-9.39c0-1.81-1.47-3.29-3.29-3.29h-9.79c-0.83,0-1.5-0.67-1.5-1.5V58.33
				c0-8.03-6.54-14.57-14.57-14.57H32.14c-8.03,0-14.57,6.54-14.57,14.57v111.64c0,0.83-0.67,1.5-1.5,1.5H6.28z M224.9,199.67H25.1
				c-8.56,0-15.53-6.97-15.53-15.53v-4.61c0-0.83,0.67-1.5,1.5-1.5h83.66c0.66,0,1.25,0.44,1.44,1.07
				c1.92,6.5,7.99,11.04,14.76,11.04h28.16c6.77,0,12.84-4.54,14.76-11.04c0.19-0.63,0.78-1.07,1.44-1.07h83.66
				c0.83,0,1.5,0.67,1.5,1.5v4.61C240.43,192.7,233.46,199.67,224.9,199.67z M12.56,181.03v3.11c0,6.91,5.62,12.53,12.53,12.53
				h199.8c6.92,0,12.54-5.62,12.54-12.53v-3.11h-81.08c-2.62,7.18-9.57,12.11-17.28,12.11h-28.16c-7.71,0-14.66-4.93-17.28-12.11
				H12.56z M139.08,183.57h-28.16c-4.86,0-8.82-3.96-8.82-8.82c0-0.88-0.35-1.71-0.99-2.34c-0.64-0.62-1.34-0.94-2.38-0.94H26.7
				c-0.83,0-1.5-0.67-1.5-1.5V58.33c0-3.82,3.11-6.93,6.93-6.93h185.71c3.82,0,6.93,3.11,6.93,6.93v111.64c0,0.83-0.67,1.5-1.5,1.5
				h-71.98c-0.26-0.01-0.51,0.01-0.74,0.06c-1.56,0.3-2.68,1.66-2.68,3.22C147.9,179.61,143.94,183.57,139.08,183.57z M98.84,168.46
				c1.62,0,3.18,0.63,4.37,1.8c1.22,1.19,1.89,2.79,1.89,4.48c0,3.21,2.61,5.83,5.83,5.83h28.16c3.21,0,5.82-2.62,5.82-5.83
				c0-3,2.14-5.59,5.1-6.16c0.44-0.09,0.85-0.13,1.37-0.12h70.43V58.33c0-2.17-1.77-3.94-3.94-3.94H32.14
				c-2.17,0-3.94,1.77-3.94,3.94v110.14h70.5C98.75,168.46,98.79,168.46,98.84,168.46z"/>
		</g>
	</g>
</g>
</svg>
