<!-- Generated by IcoMoon.io -->
<svg version="1.1" xmlns="http://www.w3.org/2000/svg" width="1024" height="1024" viewBox="0 0 1024 1024">
<title>home</title>
<g id="icomoon-ignore">
</g>
<path fill="#fff" d="M841.687 267.796h-659.374c-12.042 0-21.791 9.748-21.791 21.791v328.868c0 12.042 9.748 21.791 21.791 21.791s21.791-9.748 21.791-21.791v-307.118h615.834v307.077c0 12.042 9.748 21.791 21.791 21.791s21.791-9.748 21.791-21.791v-328.868c-0.041-12.001-9.789-21.75-21.832-21.75z"></path>
<path fill="#fff" d="M841.687 646.349c-15.401 0-27.935-12.534-27.935-27.935v-300.974h-603.546v300.933c0 15.401-12.534 27.935-27.894 27.935s-27.894-12.534-27.894-27.935v-328.827c0-15.401 12.493-27.894 27.894-27.894h659.374c15.401 0 27.894 12.534 27.894 27.894v328.827c0 15.401-12.493 27.976-27.894 27.976zM204.063 305.193h615.834c3.4 0 6.144 2.744 6.144 6.144v307.077c0 8.643 7.004 15.647 15.647 15.647s15.647-7.004 15.647-15.647v-328.868c0-8.643-7.004-15.647-15.647-15.647h-659.374c-8.602 0-15.647 7.004-15.647 15.647v328.827c0 8.643 7.004 15.647 15.647 15.647s15.647-7.004 15.647-15.647v-307.036c-0.041-3.4 2.703-6.144 6.103-6.144z"></path>
<path fill="#fff" d="M998.277 696.156h-40.1v-457.236c0-36.291-29.532-65.823-65.823-65.823h-760.709c-36.291 0-65.823 29.532-65.823 65.823v457.277h-40.1c-10.813 0-19.579 8.765-19.579 19.579v38.461c0 53.289 43.377 96.666 96.666 96.666h818.381c53.289 0 96.666-43.377 96.666-96.666v-38.461c0-10.854-8.765-19.62-19.579-19.62zM109.363 238.92c0-12.288 9.994-22.282 22.282-22.282h760.668c12.288 0 22.282 9.994 22.282 22.282v457.277h-294.83c-1.393-0.041-2.826 0.082-4.26 0.328-9.216 1.761-15.892 9.83-15.892 19.251 0 16.548-13.476 29.983-29.983 29.983h-115.302c-16.548 0-29.983-13.476-29.983-29.983 0-10.977-9.093-19.825-20.070-19.579h-294.912v-457.277zM978.657 754.237v0c0 31.703-25.805 57.467-57.467 57.467h-818.381c-31.703 0-57.467-25.805-57.467-57.467v-18.883h342.63c8.479 28.631 35.021 49.603 66.355 49.603h115.302c31.334 0 57.876-20.972 66.355-49.603h342.63l0.041 18.883z"></path>
<path fill="#fff" d="M921.19 857.047h-818.381c-56.689 0-102.81-46.121-102.81-102.81v-38.461c0-14.172 11.551-25.723 25.723-25.723h33.956v-451.133c0-39.649 32.276-71.926 71.967-71.926h760.668c39.649 0 71.967 32.276 71.967 71.926v451.133h33.956c14.172 0 25.723 11.551 25.723 25.723v38.461c0.041 56.689-46.080 102.81-102.769 102.81zM25.723 702.3c-7.414 0-13.476 6.021-13.476 13.476v38.461c0 49.93 40.632 90.522 90.522 90.522h818.381c49.93 0 90.563-40.591 90.563-90.522v-38.461c0-7.414-6.021-13.476-13.476-13.476h-40.1c-3.4 0-6.144-2.744-6.144-6.144v-457.236c0-32.891-26.788-59.679-59.679-59.679h-760.668c-32.891 0-59.679 26.788-59.679 59.679v457.277c0 3.4-2.744 6.144-6.144 6.144h-40.1zM921.19 817.848h-818.381c-35.062 0-63.611-28.549-63.611-63.611v-18.883c0-3.4 2.744-6.144 6.144-6.144h342.671c2.703 0 5.12 1.802 5.898 4.383 7.864 26.624 32.727 45.22 60.457 45.22h115.343c27.73 0 52.593-18.596 60.457-45.22 0.778-2.58 3.195-4.383 5.898-4.383h342.671c3.4 0 6.144 2.744 6.144 6.144v18.883c-0.082 35.062-28.631 63.611-63.693 63.611zM51.446 741.499v12.739c0 28.303 23.020 51.323 51.323 51.323h818.381c28.344 0 51.364-23.020 51.364-51.323v-12.739h-332.104c-10.732 29.409-39.199 49.603-70.779 49.603h-115.343c-31.58 0-60.047-20.193-70.779-49.603h-332.063zM569.672 751.903h-115.343c-19.907 0-36.127-16.22-36.127-36.127 0-3.604-1.434-7.004-4.055-9.585-2.621-2.54-5.489-3.85-9.748-3.85h-295.035c-3.4 0-6.144-2.744-6.144-6.144v-457.277c0-15.647 12.739-28.385 28.385-28.385h760.668c15.647 0 28.385 12.739 28.385 28.385v457.277c0 3.4-2.744 6.144-6.144 6.144h-294.83c-1.065-0.041-2.089 0.041-3.031 0.246-6.39 1.229-10.977 6.799-10.977 13.189 0.123 19.907-16.097 36.127-36.004 36.127zM404.849 690.012c6.636 0 13.025 2.58 17.9 7.373 4.997 4.874 7.741 11.428 7.741 18.35 0 13.148 10.691 23.88 23.88 23.88h115.343c13.148 0 23.839-10.732 23.839-23.88 0-12.288 8.765-22.897 20.89-25.231 1.802-0.369 3.482-0.532 5.612-0.492h288.481v-451.092c0-8.888-7.25-16.138-16.138-16.138h-760.75c-8.888 0-16.138 7.25-16.138 16.138v451.133h288.768c0.205-0.041 0.369-0.041 0.573-0.041z"></path>
</svg>
