<!-- Generated by IcoMoon.io -->
<svg version="1.1" xmlns="http://www.w3.org/2000/svg" width="1024" height="1024" viewBox="0 0 1024 1024">
<title>home</title>
<g id="icomoon-ignore">
</g>
<path fill="#fff" d="M876.79-0.164h-728.228c-81.633 0-148.029 66.396-148.029 148.029s66.396 148.029 148.029 148.029h728.228c81.633 0 148.029-66.396 148.029-148.029s-66.396-148.029-148.029-148.029zM876.79 215.9h-728.228c-37.519 0-68.035-30.515-68.035-68.035s30.556-67.994 68.035-67.994h728.228c37.519 0 68.035 30.515 68.035 68.035s-30.515 67.994-68.035 67.994z"></path>
<path fill="#fff" d="M876.79 363.971h-728.228c-81.633 0-148.029 66.396-148.029 148.029s66.396 148.029 148.029 148.029h728.228c81.633 0 148.029-66.396 148.029-148.029s-66.396-148.029-148.029-148.029zM876.79 580.035h-728.228c-37.519 0-68.035-30.515-68.035-68.035s30.515-68.035 68.035-68.035h728.228c37.519 0 68.035 30.515 68.035 68.035s-30.515 68.035-68.035 68.035z"></path>
<path fill="#fff" d="M876.79 728.064h-728.228c-81.633 0-148.029 66.396-148.029 148.029s66.396 148.029 148.029 148.029h528.179c22.118 0 40.018-17.9 40.018-40.018s-17.9-40.018-40.018-40.018h-528.179c-37.519 0-68.035-30.515-68.035-68.035s30.515-68.035 68.035-68.035h728.228c37.519 0 68.035 30.515 68.035 68.035s-30.515 68.035-68.035 68.035c-22.118 0-40.018 17.9-40.018 40.018s17.9 40.018 40.018 40.018c81.633 0 148.029-66.396 148.029-148.029s-66.396-148.029-148.029-148.029z"></path>
</svg>
