<?xml version="1.0" encoding="utf-8"?>
<!-- Generator: Adobe Illustrator 24.0.1, SVG Export Plug-In . SVG Version: 6.00 Build 0)  -->
<svg version="1.1" id="Слой_1" xmlns="http://www.w3.org/2000/svg" xmlns:xlink="http://www.w3.org/1999/xlink" x="0px" y="0px"
	 viewBox="0 0 250 250" style="enable-background:new 0 0 250 250;" xml:space="preserve">
<style type="text/css">
	.st0{fill:#747D8C;}
	.st1{fill:#0042FF;}
</style>
<g>
	<g>
		<path class="st0" d="M214.06-0.04H36.27C16.34-0.04,0.13,16.17,0.13,36.1s16.21,36.14,36.14,36.14h177.79
			c19.93,0,36.14-16.21,36.14-36.14S233.99-0.04,214.06-0.04z M214.06,52.71H36.27c-9.16,0-16.61-7.45-16.61-16.61
			s7.46-16.6,16.61-16.6h177.79c9.16,0,16.61,7.45,16.61,16.61S223.22,52.71,214.06,52.71z"/>
	</g>
</g>
<g>
	<g>
		<path class="st0" d="M214.06,88.86H36.27c-19.93,0-36.14,16.21-36.14,36.14s16.21,36.14,36.14,36.14h177.79
			c19.93,0,36.14-16.21,36.14-36.14S233.99,88.86,214.06,88.86z M214.06,141.61H36.27c-9.16,0-16.61-7.45-16.61-16.61
			s7.45-16.61,16.61-16.61h177.79c9.16,0,16.61,7.45,16.61,16.61S223.22,141.61,214.06,141.61z"/>
	</g>
</g>
<g>
	<g>
		<path class="st1" d="M214.06,177.75H36.27c-19.93,0-36.14,16.21-36.14,36.14s16.21,36.14,36.14,36.14h128.95
			c5.4,0,9.77-4.37,9.77-9.77s-4.37-9.77-9.77-9.77H36.27c-9.16,0-16.61-7.45-16.61-16.61s7.45-16.61,16.61-16.61h177.79
			c9.16,0,16.61,7.45,16.61,16.61s-7.45,16.61-16.61,16.61c-5.4,0-9.77,4.37-9.77,9.77s4.37,9.77,9.77,9.77
			c19.93,0,36.14-16.21,36.14-36.14S233.99,177.75,214.06,177.75z"/>
	</g>
</g>
</svg>
