<!-- Generated by IcoMoon.io -->
<svg version="1.1" xmlns="http://www.w3.org/2000/svg" width="1024" height="1024" viewBox="0 0 1024 1024">
<title>home</title>
<g id="icomoon-ignore">
</g>
<path fill="#fff" d="M864.010 0h-152.003c-88.228 0-159.99 71.762-159.99 159.99v152.003c0 88.228 71.762 159.99 159.99 159.99h152.003c88.228 0 159.99-71.762 159.99-159.99v-152.003c0-88.228-71.762-159.99-159.99-159.99zM944.005 311.992c0 44.114-35.881 79.995-79.995 79.995h-152.003c-44.114 0-79.995-35.881-79.995-79.995v-152.003c0-44.114 35.881-79.995 79.995-79.995h152.003c44.114 0 79.995 35.881 79.995 79.995v152.003z"></path>
<path fill="#fff" d="M311.992 0h-152.003c-88.228 0-159.99 71.762-159.99 159.99v152.003c0 88.228 71.762 159.99 159.99 159.99h152.003c88.228 0 159.99-71.762 159.99-159.99v-152.003c0-88.228-71.762-159.99-159.99-159.99zM391.987 311.992c0 44.114-35.881 79.995-79.995 79.995h-152.003c-44.114 0-79.995-35.881-79.995-79.995v-152.003c0-44.114 35.881-79.995 79.995-79.995h152.003c44.114 0 79.995 35.881 79.995 79.995v152.003z"></path>
<path fill="#fff" d="M311.992 552.018h-152.003c-88.228 0-159.99 71.762-159.99 159.99v152.003c0 88.228 71.762 159.99 159.99 159.99h152.003c88.228 0 159.99-71.762 159.99-159.99v-152.003c0-88.228-71.762-159.99-159.99-159.99zM391.987 864.010c0 44.114-35.881 79.995-79.995 79.995h-152.003c-44.114 0-79.995-35.881-79.995-79.995v-152.003c0-44.114 35.881-79.995 79.995-79.995h152.003c44.114 0 79.995 35.881 79.995 79.995v152.003z"></path>
<path fill="#fff" d="M983.982 823.992c-22.077 0-40.018 17.9-40.018 40.018 0 44.114-35.881 79.995-79.995 79.995h-152.003c-44.114 0-79.995-35.881-79.995-79.995v-152.003c0-44.114 35.881-79.995 79.995-79.995h152.003c31.826 0 60.621 18.842 73.359 48.005 8.847 20.234 32.44 29.491 52.675 20.644s29.491-32.44 20.644-52.675c-25.477-58.286-83.067-95.928-146.637-95.928h-152.003c-88.228 0-159.99 71.762-159.99 159.99v152.003c0 88.228 71.762 159.99 159.99 159.99h152.003c88.228 0 159.99-71.762 159.99-159.99 0-22.159-17.9-40.059-40.018-40.059z"></path>
</svg>
