<?xml version="1.0" encoding="utf-8"?>
<!-- Generator: Adobe Illustrator 24.0.1, SVG Export Plug-In . SVG Version: 6.00 Build 0)  -->
<svg version="1.1" id="Слой_1" xmlns="http://www.w3.org/2000/svg" xmlns:xlink="http://www.w3.org/1999/xlink" x="0px" y="0px"
	 viewBox="0 0 250 250" style="enable-background:new 0 0 250 250;" xml:space="preserve">
<style type="text/css">
	.st0{fill:#747D8C;}
	.st1{fill:#0042FF;}
</style>
<g>
	<g>
		<path class="st0" d="M210.94,0h-37.11c-21.54,0-39.06,17.52-39.06,39.06v37.11c0,21.54,17.52,39.06,39.06,39.06h37.11
			c21.54,0,39.06-17.52,39.06-39.06V39.06C250,17.52,232.48,0,210.94,0z M230.47,76.17c0,10.77-8.76,19.53-19.53,19.53h-37.11
			c-10.77,0-19.53-8.76-19.53-19.53V39.06c0-10.77,8.76-19.53,19.53-19.53h37.11c10.77,0,19.53,8.76,19.53,19.53V76.17z"/>
	</g>
</g>
<g>
	<g>
		<path class="st0" d="M76.17,0H39.06C17.52,0,0,17.52,0,39.06v37.11c0,21.54,17.52,39.06,39.06,39.06h37.11
			c21.54,0,39.06-17.52,39.06-39.06V39.06C115.23,17.52,97.71,0,76.17,0z M95.7,76.17c0,10.77-8.76,19.53-19.53,19.53H39.06
			c-10.77,0-19.53-8.76-19.53-19.53V39.06c0-10.77,8.76-19.53,19.53-19.53h37.11c10.77,0,19.53,8.76,19.53,19.53V76.17z"/>
	</g>
</g>
<g>
	<g>
		<path class="st0" d="M76.17,134.77H39.06C17.52,134.77,0,152.29,0,173.83v37.11C0,232.48,17.52,250,39.06,250h37.11
			c21.54,0,39.06-17.52,39.06-39.06v-37.11C115.23,152.29,97.71,134.77,76.17,134.77z M95.7,210.94c0,10.77-8.76,19.53-19.53,19.53
			H39.06c-10.77,0-19.53-8.76-19.53-19.53v-37.11c0-10.77,8.76-19.53,19.53-19.53h37.11c10.77,0,19.53,8.76,19.53,19.53V210.94z"/>
	</g>
</g>
<g>
	<g>
		<path class="st1" d="M240.23,201.17c-5.39,0-9.77,4.37-9.77,9.77c0,10.77-8.76,19.53-19.53,19.53h-37.11
			c-10.77,0-19.53-8.76-19.53-19.53v-37.11c0-10.77,8.76-19.53,19.53-19.53h37.11c7.77,0,14.8,4.6,17.91,11.72
			c2.16,4.94,7.92,7.2,12.86,5.04c4.94-2.16,7.2-7.92,5.04-12.86c-6.22-14.23-20.28-23.42-35.8-23.42h-37.11
			c-21.54,0-39.06,17.52-39.06,39.06v37.11c0,21.54,17.52,39.06,39.06,39.06h37.11c21.54,0,39.06-17.52,39.06-39.06
			C250,205.54,245.63,201.17,240.23,201.17z"/>
	</g>
</g>
</svg>
