<?xml version="1.0" encoding="utf-8"?>
<!-- Generator: Adobe Illustrator 24.0.1, SVG Export Plug-In . SVG Version: 6.00 Build 0)  -->
<svg version="1.1" id="Слой_1" xmlns="http://www.w3.org/2000/svg" xmlns:xlink="http://www.w3.org/1999/xlink" x="0px" y="0px"
	 viewBox="0 0 250 60.38" style="enable-background:new 0 0 250 60.38;" xml:space="preserve">
<style type="text/css">
	.st0{fill:#57606F;}
</style>
<g>
	<path class="st0" d="M37.22,12.81c1.46,1.65,2.2,4.35,2.2,8.11v11.81c0,1.19-0.36,2.1-1.08,2.71c-0.72,0.62-1.64,0.92-2.76,0.92
		c-1.09,0-2.01-0.3-2.76-0.92c-0.75-0.61-1.12-1.51-1.12-2.71V20.81c0-1.64-0.28-2.79-0.84-3.45c-0.56-0.66-1.42-1-2.58-1
		c-1.43,0-2.57,0.5-3.43,1.48c-0.85,0.99-1.28,2.37-1.28,4.14v10.74c0,1.19-0.36,2.1-1.07,2.71c-0.72,0.62-1.64,0.92-2.76,0.92
		c-1.09,0-2.01-0.3-2.76-0.92c-0.75-0.61-1.13-1.51-1.13-2.71V20.81c0-1.64-0.28-2.79-0.84-3.45c-0.56-0.66-1.42-1-2.58-1
		c-1.43,0-2.57,0.5-3.42,1.48c-0.85,0.99-1.28,2.37-1.28,4.14v10.74c0,1.19-0.37,2.1-1.1,2.71c-0.73,0.62-1.65,0.92-2.74,0.92
		s-2.01-0.3-2.76-0.92C0.38,34.82,0,33.92,0,32.72V13.96c0-1.13,0.38-1.99,1.15-2.61c0.77-0.61,1.7-0.92,2.79-0.92
		c1.02,0,1.87,0.3,2.56,0.9c0.68,0.6,1.02,1.42,1.02,2.48v0.51c0.82-1.29,1.88-2.28,3.2-2.96s2.8-1.02,4.47-1.02
		c1.81,0,3.33,0.37,4.58,1.1c1.24,0.73,2.21,1.92,2.89,3.55c0.78-1.43,1.9-2.57,3.35-3.4c1.45-0.83,3.09-1.25,4.93-1.25
		C33.66,10.33,35.76,11.16,37.22,12.81z"/>
	<path class="st0" d="M63.68,11.04c0.56-0.34,1.17-0.51,1.82-0.51c0.99,0,1.86,0.31,2.61,0.94c0.75,0.63,1.13,1.39,1.13,2.28
		c0,0.48-0.12,0.95-0.36,1.43L55.12,43.41c-0.34,0.72-0.8,1.25-1.38,1.61s-1.19,0.54-1.84,0.54c-0.95,0-1.79-0.3-2.5-0.92
		c-0.72-0.61-1.07-1.36-1.07-2.25c0-0.55,0.12-1.06,0.36-1.53l3.37-7.01l-9.1-18.66c-0.2-0.48-0.31-0.94-0.31-1.38
		c0-0.92,0.4-1.7,1.2-2.35s1.71-0.97,2.73-0.97c0.68,0,1.31,0.18,1.89,0.54c0.58,0.36,1.04,0.89,1.38,1.61l6.34,13.81l6.19-13.81
		C62.69,11.91,63.12,11.38,63.68,11.04z"/>
	<path class="st0" d="M101.16,20.58c1.14,1.52,1.71,3.38,1.71,5.6c0,3.03-1.12,5.44-3.35,7.21c-2.23,1.77-5.31,2.66-9.23,2.66H76.9
		c-1.19,0-2.11-0.32-2.76-0.97c-0.65-0.64-0.97-1.56-0.97-2.76V3.73c0-1.19,0.32-2.11,0.97-2.76S75.7,0,76.9,0h12.89
		c3.75,0,6.72,0.84,8.92,2.5c2.2,1.67,3.3,3.95,3.3,6.85c0,1.88-0.5,3.52-1.51,4.93s-2.39,2.45-4.17,3.09
		C98.4,18,100.02,19.06,101.16,20.58z M80.94,14.67h7.52c2.05,0,3.55-0.35,4.52-1.05c0.97-0.7,1.46-1.76,1.46-3.2
		c0-1.5-0.49-2.6-1.46-3.3s-2.48-1.05-4.52-1.05h-7.52V14.67z M93.97,28.89c0.95-0.72,1.43-1.87,1.43-3.48
		c0-1.6-0.48-2.78-1.43-3.53s-2.49-1.12-4.6-1.12h-8.44v9.2h8.44C91.49,29.96,93.02,29.6,93.97,28.89z"/>
	<path class="st0" d="M125.67,13.01c1.77,1.79,2.66,4.52,2.66,8.21v11.55c0,1.13-0.32,2.01-0.97,2.63
		c-0.65,0.63-1.55,0.94-2.71,0.94c-1.09,0-1.97-0.33-2.63-0.99c-0.67-0.67-1-1.53-1-2.58v-0.36c-0.51,1.26-1.36,2.25-2.55,2.97
		s-2.59,1.07-4.19,1.07c-1.7,0-3.25-0.34-4.63-1.02s-2.47-1.64-3.27-2.86c-0.8-1.23-1.2-2.59-1.2-4.09c0-1.84,0.47-3.29,1.41-4.35
		s2.44-1.82,4.52-2.3c2.08-0.48,4.92-0.72,8.54-0.72h1.33v-0.92c0-1.43-0.32-2.47-0.95-3.12c-0.63-0.65-1.68-0.97-3.14-0.97
		c-1.47,0-3.58,0.51-6.34,1.54c-0.78,0.37-1.45,0.56-1.99,0.56c-0.75,0-1.35-0.26-1.79-0.79s-0.67-1.22-0.67-2.07
		c0-0.68,0.15-1.24,0.46-1.69c0.31-0.44,0.8-0.85,1.48-1.23c1.19-0.65,2.65-1.16,4.37-1.53s3.42-0.56,5.09-0.56
		C121.17,10.33,123.9,11.22,125.67,13.01z M119.59,29.63c0.92-1.01,1.38-2.31,1.38-3.91v-0.87h-0.87c-2.76,0-4.7,0.22-5.8,0.66
		c-1.11,0.44-1.66,1.25-1.66,2.4c0,0.95,0.31,1.73,0.95,2.33c0.63,0.6,1.42,0.89,2.38,0.89C117.46,31.14,118.67,30.63,119.59,29.63z
		"/>
	<path class="st0" d="M154.87,33.18c0,1.91-1.17,2.86-3.48,2.86h-16.57c-1.02,0-1.86-0.32-2.5-0.97c-0.65-0.64-0.97-1.41-0.97-2.3
		c0-1.02,0.36-1.91,1.07-2.66l11.96-13.4h-9.82c-2.32,0-3.48-0.95-3.48-2.86c0-1.94,1.16-2.91,3.48-2.91h15.95
		c1.06,0,1.91,0.32,2.53,0.97c0.63,0.65,0.95,1.43,0.95,2.35c0,1.02-0.36,1.91-1.07,2.66l-11.91,13.34h10.38
		C153.71,30.27,154.87,31.24,154.87,33.18z"/>
	<path class="st0" d="M176.44,13.01c1.77,1.79,2.66,4.52,2.66,8.21v11.55c0,1.13-0.32,2.01-0.97,2.63
		c-0.65,0.63-1.55,0.94-2.71,0.94c-1.09,0-1.97-0.33-2.63-0.99c-0.67-0.67-1-1.53-1-2.58v-0.36c-0.51,1.26-1.36,2.25-2.55,2.97
		s-2.59,1.07-4.19,1.07c-1.71,0-3.25-0.34-4.63-1.02s-2.47-1.64-3.27-2.86c-0.8-1.23-1.2-2.59-1.2-4.09c0-1.84,0.47-3.29,1.41-4.35
		s2.45-1.82,4.52-2.3c2.08-0.48,4.93-0.72,8.54-0.72h1.33v-0.92c0-1.43-0.32-2.47-0.94-3.12c-0.63-0.65-1.68-0.97-3.15-0.97
		s-3.58,0.51-6.34,1.54c-0.78,0.37-1.45,0.56-1.99,0.56c-0.75,0-1.35-0.26-1.79-0.79c-0.45-0.53-0.67-1.22-0.67-2.07
		c0-0.68,0.15-1.24,0.46-1.69c0.3-0.44,0.8-0.85,1.48-1.23c1.19-0.65,2.65-1.16,4.37-1.53s3.42-0.56,5.08-0.56
		C171.94,10.33,174.67,11.22,176.44,13.01z M170.36,29.63c0.92-1.01,1.38-2.31,1.38-3.91v-0.87h-0.87c-2.76,0-4.7,0.22-5.8,0.66
		c-1.11,0.44-1.66,1.25-1.66,2.4c0,0.95,0.32,1.73,0.94,2.33c0.63,0.6,1.42,0.89,2.38,0.89C168.23,31.14,169.44,30.63,170.36,29.63z
		"/>
	<path class="st0" d="M198.92,11.12c0.6,0.53,0.89,1.32,0.89,2.38c0,1.13-0.27,1.96-0.82,2.5c-0.55,0.55-1.51,0.89-2.91,1.02
		l-1.54,0.15c-1.87,0.21-3.23,0.82-4.07,1.84c-0.84,1.02-1.25,2.34-1.25,3.94v9.77c0,1.19-0.37,2.1-1.1,2.71
		c-0.73,0.62-1.64,0.92-2.73,0.92c-1.13,0-2.06-0.3-2.79-0.92c-0.73-0.61-1.1-1.51-1.1-2.71V13.96c0-1.13,0.37-1.99,1.12-2.61
		c0.75-0.61,1.65-0.92,2.71-0.92c1.02,0,1.88,0.3,2.56,0.9c0.68,0.6,1.02,1.42,1.02,2.48v1.38c0.62-1.46,1.54-2.59,2.79-3.37
		c1.24-0.78,2.6-1.23,4.07-1.33l0.72-0.05C197.51,10.36,198.32,10.59,198.92,11.12z"/>
</g>
<path class="st0" d="M213.94,49.65H68.67c-1.76,0-3.2-1.43-3.2-3.2s1.43-3.2,3.2-3.2h143.18L230.12,1.9c0.51-1.16,1.66-1.9,2.93-1.9
	h13.76c1.76,0,3.2,1.43,3.2,3.2s-1.43,3.2-3.2,3.2h-11.68l-18.26,41.35C216.35,48.9,215.2,49.65,213.94,49.65z"/>
<path class="st0" d="M224.85,24.93h-20.77c-1.76,0-3.2-1.43-3.2-3.2c0-1.76,1.43-3.2,3.2-3.2h20.77c1.76,0,3.2,1.43,3.2,3.2
	S226.62,24.93,224.85,24.93z"/>
<path class="st0" d="M192.59,52.72c0,4.24-3.42,7.66-7.66,7.66c-4.22,0-7.66-3.42-7.66-7.66c0-0.08,0-0.17,0.02-0.25h15.28
	C192.59,52.55,192.59,52.64,192.59,52.72z"/>
<path class="st0" d="M103.49,52.72c0,4.24-3.42,7.66-7.66,7.66c-4.22,0-7.66-3.42-7.66-7.66c0-0.08,0-0.17,0.02-0.25h15.28
	C103.49,52.55,103.49,52.64,103.49,52.72z"/>
</svg>
