<?xml version="1.0" encoding="utf-8"?>
<!-- Generator: Adobe Illustrator 24.0.1, SVG Export Plug-In . SVG Version: 6.00 Build 0)  -->
<svg version="1.1" id="Слой_1" xmlns="http://www.w3.org/2000/svg" xmlns:xlink="http://www.w3.org/1999/xlink" x="0px" y="0px"
	 viewBox="0 0 250 250" style="enable-background:new 0 0 250 250;" xml:space="preserve">
<style type="text/css">
	.st0{fill:#747D8C;}
	.st1{fill:#0042FF;}
</style>
<g>
	<g>
		<path class="st0" d="M222.13,55.76h-45.46l-12.58-27.57c-1.13-2.46-3.59-4.08-6.29-4.08H92.25c-2.7,0-5.16,1.57-6.29,4.08
			L73.38,55.76H42.56V53.3c0-3.83-3.1-6.93-6.93-6.93c-3.83,0-6.93,3.1-6.93,6.93v2.46h-0.79C12.64,55.76,0.2,68.19,0.2,83.47v114.7
			c0,15.28,12.43,27.72,27.72,27.72h194.16c15.28,0,27.72-12.43,27.72-27.72V83.47C249.85,68.19,237.41,55.76,222.13,55.76z
			 M96.72,37.97h56.61l8.11,17.79H88.61L96.72,37.97z M222.13,212.03H27.92c-7.67,0-13.86-6.24-13.86-13.86V83.47
			c0-7.67,6.24-13.86,13.86-13.86h194.16c7.67,0,13.86,6.24,13.86,13.86v114.7h0.05C235.99,205.84,229.75,212.03,222.13,212.03z"/>
	</g>
</g>
<g>
	<g>
		<path class="st1" d="M67.18,88.39H45.12c-3.83,0-6.93,3.1-6.93,6.93s3.1,6.93,6.93,6.93h22.06c3.83,0,6.93-3.1,6.93-6.93
			S71.02,88.39,67.18,88.39z"/>
	</g>
</g>
<g>
	<g>
		<path class="st1" d="M143.7,83.47c-31.6,0-57.35,25.7-57.35,57.35c0,31.6,25.7,57.35,57.35,57.35c31.6,0,57.35-25.7,57.35-57.35
			C201.05,109.23,175.3,83.47,143.7,83.47z M143.7,184.31c-23.98,0-43.49-19.51-43.49-43.49s19.51-43.49,43.49-43.49
			s43.49,19.51,43.49,43.49S167.68,184.31,143.7,184.31z"/>
	</g>
</g>
<g>
	<g>
		<path class="st1" d="M136.77,118.17"/>
	</g>
</g>
</svg>
