<!-- Generated by IcoMoon.io -->
<svg version="1.1" xmlns="http://www.w3.org/2000/svg" width="1024" height="1024" viewBox="0 0 1024 1024">
<title>home</title>
<g id="icomoon-ignore">
</g>
<path fill="#fff" d="M909.844 228.393h-186.204l-51.528-112.927c-4.628-10.076-14.705-16.712-25.764-16.712h-268.493c-11.059 0-21.135 6.431-25.764 16.712l-51.528 112.927h-126.239v-10.076c0-15.688-12.698-28.385-28.385-28.385s-28.385 12.698-28.385 28.385v10.076h-3.236c-62.546 0-113.5 50.913-113.5 113.5v469.811c0 62.587 50.913 113.541 113.541 113.541h795.279c62.587 0 113.541-50.913 113.541-113.541v-469.811c0.205-62.587-50.749-113.5-113.336-113.5zM396.165 155.525h231.875l33.219 72.868h-298.312l33.219-72.868zM909.844 868.475h-795.484c-31.416 0-56.771-25.559-56.771-56.771v-469.811c0-31.416 25.559-56.771 56.771-56.771h795.279c31.416 0 56.771 25.559 56.771 56.771v469.811h0.205c0 31.416-25.559 56.771-56.771 56.771z"></path>
<path fill="#fff" d="M275.169 362.045h-90.358c-15.688 0-28.385 12.698-28.385 28.385s12.698 28.385 28.385 28.385h90.358c15.688 0 28.385-12.698 28.385-28.385s-12.657-28.385-28.385-28.385z"></path>
<path fill="#fff" d="M588.595 341.893c-129.434 0-234.906 105.267-234.906 234.906 0 129.434 105.267 234.906 234.906 234.906 129.434 0 234.906-105.267 234.906-234.906 0-129.393-105.472-234.906-234.906-234.906zM588.595 754.934c-98.222 0-178.135-79.913-178.135-178.135s79.913-178.135 178.135-178.135 178.135 79.913 178.135 178.135-79.913 178.135-178.135 178.135z"></path>
</svg>
