<?xml version="1.0" encoding="utf-8"?>
<!-- Generator: Adobe Illustrator 24.0.1, SVG Export Plug-In . SVG Version: 6.00 Build 0)  -->
<svg version="1.1" id="Слой_1" xmlns="http://www.w3.org/2000/svg" xmlns:xlink="http://www.w3.org/1999/xlink" x="0px" y="0px"
	 viewBox="0 0 250 250" style="enable-background:new 0 0 250 250;" xml:space="preserve">
<style type="text/css">
	.st0{fill:#FFFFFF;}
</style>
<g>
	<g>
		<path class="st0" d="M106.68,50.14c-7.52,0-12.54,5.01-12.54,12.54s5.01,12.54,12.54,12.54c17.55,0,31.34,13.79,31.34,31.34
			c0,7.52,5.01,12.54,12.54,12.54c7.52,0,12.54-5.01,12.54-12.54C163.09,75.22,138.02,50.14,106.68,50.14z"/>
	</g>
</g>
<g>
	<g>
		<path class="st0" d="M242.07,213.11l-52.65-37.61c15.04-18.8,25.07-42.62,25.07-67.69C213.23,47.64,165.6,0,106.68,0
			S0.12,47.64,0.12,106.56s47.64,106.56,106.56,106.56c26.33,0,48.89-8.78,67.69-25.07l37.61,52.65
			c7.52,11.28,22.56,12.54,31.34,2.51S252.09,220.63,242.07,213.11z M106.68,188.04c-45.13,0-81.48-36.35-81.48-81.48
			s36.35-81.48,81.48-81.48s81.48,36.35,81.48,81.48S151.81,188.04,106.68,188.04z"/>
	</g>
</g>
</svg>
