<!-- Generated by IcoMoon.io -->
<svg version="1.1" xmlns="http://www.w3.org/2000/svg" width="1024" height="1024" viewBox="0 0 1024 1024">
<title>home</title>
<g id="icomoon-ignore">
</g>
<path fill="#fff" d="M734.945 60.457c3.645 0 6.636 2.99 6.636 6.636v889.815c0 3.645-2.99 6.636-6.636 6.636h-445.399c-3.645 0-6.636-2.99-6.636-6.636v-889.815c0-3.645 2.99-6.636 6.636-6.636h445.399zM734.945 0h-445.399c-37.069 0-67.092 30.024-67.092 67.092v889.815c0 37.069 30.024 67.092 67.092 67.092h445.358c37.069 0 67.092-30.024 67.092-67.092v-889.815c0.041-37.069-29.983-67.092-67.052-67.092v0z"></path>
<path fill="#fff" d="M558.367 942.162h-90.726c-16.712 0-30.228-13.517-30.228-30.228s13.517-30.228 30.228-30.228h90.726c16.712 0 30.228 13.517 30.228 30.228s-13.517 30.228-30.228 30.228z"></path>
<path fill="#fff" d="M343.777 264.806c-7.741 0-15.483-2.949-21.381-8.847-11.796-11.796-11.796-30.925 0-42.762l110.264-110.264c11.796-11.796 30.925-11.796 42.762 0s11.796 30.925 0 42.762l-110.264 110.223c-5.898 5.939-13.64 8.888-21.381 8.888z"></path>
<path fill="#fff" d="M377.364 424.387c-7.741 0-15.483-2.949-21.381-8.847-11.796-11.796-11.796-30.925 0-42.762l242.729-242.729c11.796-11.796 30.925-11.796 42.762 0 11.796 11.796 11.796 30.925 0 42.762l-242.729 242.729c-5.898 5.898-13.64 8.847-21.381 8.847z"></path>
</svg>
