<?xml version="1.0" encoding="utf-8"?>
<!-- Generator: Adobe Illustrator 24.0.1, SVG Export Plug-In . SVG Version: 6.00 Build 0)  -->
<svg version="1.1" id="Слой_1" xmlns="http://www.w3.org/2000/svg" xmlns:xlink="http://www.w3.org/1999/xlink" x="0px" y="0px"
	 viewBox="0 0 250 250" style="enable-background:new 0 0 250 250;" xml:space="preserve">
<style type="text/css">
	.st0{fill:#747D8C;}
	.st1{fill:#0042FF;}
</style>
<path class="st0" d="M179.43,14.76c0.89,0,1.62,0.73,1.62,1.62v217.24c0,0.89-0.73,1.62-1.62,1.62H70.69
	c-0.89,0-1.62-0.73-1.62-1.62V16.38c0-0.89,0.73-1.62,1.62-1.62H179.43 M179.43,0H70.69c-9.05,0-16.38,7.33-16.38,16.38v217.24
	c0,9.05,7.33,16.38,16.38,16.38h108.73c9.05,0,16.38-7.33,16.38-16.38V16.38C195.81,7.33,188.48,0,179.43,0L179.43,0z"/>
<path class="st1" d="M136.32,230.02h-22.15c-4.08,0-7.38-3.3-7.38-7.38s3.3-7.38,7.38-7.38h22.15c4.08,0,7.38,3.3,7.38,7.38
	S140.4,230.02,136.32,230.02z"/>
<path class="st1" d="M83.93,64.65c-1.89,0-3.78-0.72-5.22-2.16c-2.88-2.88-2.88-7.55,0-10.44l26.92-26.92
	c2.88-2.88,7.55-2.88,10.44,0s2.88,7.55,0,10.44L89.15,62.48C87.71,63.93,85.82,64.65,83.93,64.65z"/>
<path class="st1" d="M92.13,103.61c-1.89,0-3.78-0.72-5.22-2.16c-2.88-2.88-2.88-7.55,0-10.44l59.26-59.26
	c2.88-2.88,7.55-2.88,10.44,0c2.88,2.88,2.88,7.55,0,10.44l-59.26,59.26C95.91,102.89,94.02,103.61,92.13,103.61z"/>
</svg>
