<?xml version="1.0" encoding="utf-8"?>
<!-- Generator: Adobe Illustrator 24.0.1, SVG Export Plug-In . SVG Version: 6.00 Build 0)  -->
<svg version="1.1" id="Слой_1" xmlns="http://www.w3.org/2000/svg" xmlns:xlink="http://www.w3.org/1999/xlink" x="0px" y="0px"
	 viewBox="0 0 250 250" style="enable-background:new 0 0 250 250;" xml:space="preserve">
<style type="text/css">
	.st0{fill:#FFFFFF;}
</style>
<path class="st0" d="M239.73,52.15H44.26l-2.91-32.37c-0.48-5.29-4.91-9.35-10.23-9.35H10.27C4.6,10.43,0,15.03,0,20.7
	s4.6,10.27,10.27,10.27h11.47c6.27,69.86-9.94-110.7,11.81,131.56c0.84,9.48,5.96,19.77,14.79,26.76
	c-15.91,20.32-1.37,50.28,24.51,50.28c21.48,0,36.64-21.43,29.27-41.72h56.19c-7.36,20.27,7.76,41.72,29.27,41.72
	c17.16,0,31.13-13.96,31.13-31.13s-13.96-31.13-31.13-31.13H72.92c-7.8,0-14.6-4.71-17.53-11.56l164.08-9.64
	c4.48-0.26,8.27-3.41,9.36-7.76l20.86-83.44C251.31,58.44,246.41,52.15,239.73,52.15L239.73,52.15z M72.85,219.03
	c-5.84,0-10.59-4.75-10.59-10.59s4.75-10.59,10.59-10.59c5.84,0,10.59,4.75,10.59,10.59S78.69,219.03,72.85,219.03z M187.58,219.03
	c-5.84,0-10.59-4.75-10.59-10.59s4.75-10.59,10.59-10.59s10.59,4.75,10.59,10.59S193.42,219.03,187.58,219.03z M210.74,136.05
	l-158.11,9.29L46.1,72.68h180.48L210.74,136.05z"/>
</svg>
