<?xml version="1.0" encoding="utf-8"?>
<!-- Generator: Adobe Illustrator 24.0.1, SVG Export Plug-In . SVG Version: 6.00 Build 0)  -->
<svg version="1.1" id="Слой_1" xmlns="http://www.w3.org/2000/svg" xmlns:xlink="http://www.w3.org/1999/xlink" x="0px" y="0px"
	 viewBox="0 0 250 250" style="enable-background:new 0 0 250 250;" xml:space="preserve">
<style type="text/css">
	.st0{fill:#07108F;}
</style>
<g>
	<path class="st0" d="M182.75,240.38V250H67.33v-9.62c0-5.3,4.32-9.62,9.62-9.62h19.36c0.51-12,8.3-22.03,19.11-25.86V92.12
		c-5.07-3.2-8.46-8.82-8.46-15.26h8.46h19.24h8.46c0,6.44-3.4,12.06-8.46,15.26v112.77c10.81,3.84,18.6,13.86,19.11,25.86h19.36
		C178.43,230.76,182.75,235.08,182.75,240.38z M250.08,153.81c-7.05,19.85-25.83,34.17-48.09,34.17s-41.04-14.33-48.09-34.17H165
		l32.49-86.11c1.4-3.75,7.59-3.75,9,0l32.49,86.11L250.08,153.81z M228.7,153.81l-26.71-70.78l-26.71,70.79L228.7,153.81
		L228.7,153.81z M48.09,57.73c4.36,0,7.91-2.91,9.14-6.87c3.18-1.21,6.44-2.85,9.79-4.54c7.36-3.71,15.7-7.94,24.35-7.94
		c8.31,0,13.5,3.84,16.48,7.11c-0.12,0.83-0.25,1.65-0.25,2.51c0,9.63,7.81,17.44,17.44,17.44s17.44-7.81,17.44-17.44
		c0-0.86-0.13-1.67-0.25-2.5c2.96-3.26,8.16-7.12,16.48-7.12c8.66,0,17,4.21,24.34,7.93c3.36,1.69,6.62,3.33,9.8,4.54
		c1.23,3.95,4.78,6.87,9.14,6.87c5.37,0,9.71-4.35,9.71-9.71s-4.35-9.71-9.71-9.71c-2.77,0-5.24,1.19-7.01,3.06
		c-2.38-1-4.94-2.28-7.59-3.62c-8.31-4.2-17.73-8.96-28.68-8.96c-9.58,0-16.26,3.65-20.79,7.57c-2.03-2.24-4.63-3.91-7.58-4.87
		c3.59-1.92,6.11-5.59,6.11-9.93c0-6.3-11.41-21.01-11.41-21.01s-11.41,14.71-11.41,21.01c0,4.35,2.52,8,6.11,9.93
		c-2.95,0.94-5.55,2.63-7.58,4.87c-4.53-3.92-11.21-7.57-20.79-7.57c-10.96,0-20.38,4.76-28.69,8.96c-2.65,1.35-5.2,2.63-7.58,3.62
		c-1.77-1.86-4.24-3.06-7.01-3.06c-5.37,0-9.71,4.35-9.71,9.71S42.73,57.73,48.09,57.73z M48.09,187.99
		c-22.27,0-41.04-14.33-48.09-34.17h11.1L43.59,67.7c1.4-3.75,7.59-3.75,9,0l32.49,86.11h11.1
		C89.13,173.66,70.36,187.99,48.09,187.99z M74.8,153.81L48.09,83.02l-26.71,70.79L74.8,153.81L74.8,153.81z"/>
</g>
</svg>
