<?xml version="1.0" encoding="utf-8"?>
<!-- Generator: Adobe Illustrator 24.0.1, SVG Export Plug-In . SVG Version: 6.00 Build 0)  -->
<svg version="1.1" id="Слой_1" xmlns="http://www.w3.org/2000/svg" xmlns:xlink="http://www.w3.org/1999/xlink" x="0px" y="0px"
	 viewBox="0 0 250 250" style="enable-background:new 0 0 250 250;" xml:space="preserve">
<style type="text/css">
	.st0{fill:#747D8C;}
	.st1{fill:#0042FF;}
</style>
<path class="st0" d="M228.09,44.43H127.96l31.61-31.96c2.84-2.87,2.82-7.51-0.06-10.36c-2.88-2.85-7.51-2.82-10.36,0.06
	l-38.74,39.17L71.67,2.17c-2.84-2.88-7.48-2.9-10.36-0.06s-2.9,7.48-0.06,10.36l31.61,31.96H22.03c-12.12,0-21.97,9.86-21.97,21.97
	v146.97c0,12.12,9.86,21.97,21.97,21.97h12.1l-2.15,2.15c-2.86,2.86-2.86,7.5,0,10.36c1.43,1.43,3.3,2.15,5.18,2.15
	s3.75-0.72,5.18-2.15l12.5-12.5h140.91l12.5,12.5c1.43,1.43,3.3,2.15,5.18,2.15s3.75-0.72,5.18-2.15c2.86-2.86,2.86-7.5,0-10.36
	l-2.14-2.15h11.61c12.12,0,21.97-9.86,21.97-21.97V66.41C250.06,54.29,240.2,44.43,228.09,44.43z M235.41,213.38
	c0,4.04-3.29,7.32-7.32,7.32H22.03c-4.04,0-7.32-3.29-7.32-7.32V66.41c0-4.04,3.29-7.32,7.32-7.32h206.05
	c4.04,0,7.32,3.29,7.32,7.32V213.38z"/>
<path class="st1" d="M154.36,73.73H51.82c-12.12,0-21.97,9.86-21.97,21.97v87.89c0,12.12,9.86,21.97,21.97,21.97h102.54
	c12.12,0,21.97-9.86,21.97-21.97V95.7C176.33,83.59,166.47,73.73,154.36,73.73z M161.68,183.59c0,4.04-3.29,7.32-7.32,7.32H51.82
	c-4.04,0-7.32-3.29-7.32-7.32V95.7c0-4.04,3.29-7.32,7.32-7.32h102.54c4.04,0,7.32,3.29,7.32,7.32V183.59z"/>
<path class="st1" d="M206.12,81.05c-8.08,0-14.65,6.57-14.65,14.65s6.57,14.65,14.65,14.65c8.08,0,14.65-6.57,14.65-14.65
	S214.19,81.05,206.12,81.05z"/>
<path class="st1" d="M213.44,125h-14.65c-4.05,0-7.32,3.28-7.32,7.32c0,4.05,3.28,7.32,7.32,7.32h14.65c4.05,0,7.32-3.28,7.32-7.32
	C220.76,128.28,217.49,125,213.44,125z"/>
<path class="st1" d="M213.44,154.3h-14.65c-4.05,0-7.32,3.28-7.32,7.32s3.28,7.32,7.32,7.32h14.65c4.05,0,7.32-3.28,7.32-7.32
	S217.49,154.3,213.44,154.3z"/>
<path class="st1" d="M213.44,183.59h-14.65c-4.05,0-7.32,3.28-7.32,7.32s3.28,7.32,7.32,7.32h14.65c4.05,0,7.32-3.28,7.32-7.32
	S217.49,183.59,213.44,183.59z"/>
</svg>
