<!-- Generated by IcoMoon.io -->
<svg version="1.1" xmlns="http://www.w3.org/2000/svg" width="1024" height="1024" viewBox="0 0 1024 1024">
<title>home</title>
<g id="icomoon-ignore">
</g>
<path fill="#fff" d="M934.257 181.985h-410.132l129.475-130.908c11.633-11.756 11.551-30.761-0.246-42.435s-30.761-11.551-42.435 0.246l-158.679 160.44-158.679-160.44c-11.633-11.796-30.638-11.878-42.435-0.246s-11.878 30.638-0.246 42.435l129.475 130.908h-290.12c-49.644 0-89.989 40.387-89.989 89.989v601.989c0 49.644 40.387 89.989 89.989 89.989h49.562l-8.806 8.806c-11.715 11.715-11.715 30.72 0 42.435 5.857 5.857 13.517 8.806 21.217 8.806s15.36-2.949 21.217-8.806l51.2-51.2h577.167l51.2 51.2c5.857 5.857 13.517 8.806 21.217 8.806s15.36-2.949 21.217-8.806c11.715-11.715 11.715-30.72 0-42.435l-8.765-8.806h47.555c49.644 0 89.989-40.387 89.989-89.989v-601.948c0.041-49.644-40.346-90.030-89.948-90.030zM964.239 874.004c0 16.548-13.476 29.983-29.983 29.983h-844.022c-16.548 0-29.983-13.476-29.983-29.983v-601.989c0-16.548 13.476-29.983 29.983-29.983h843.981c16.548 0 29.983 13.476 29.983 29.983v601.989z"></path>
<path fill="#fff" d="M632.259 301.998h-420.004c-49.644 0-89.989 40.387-89.989 89.989v359.997c0 49.644 40.387 89.989 89.989 89.989h420.004c49.644 0 89.989-40.387 89.989-89.989v-359.997c0-49.603-40.387-89.989-89.989-89.989zM662.241 751.985c0 16.548-13.476 29.983-29.983 29.983h-420.004c-16.548 0-29.983-13.476-29.983-29.983v-359.997c0-16.548 13.476-29.983 29.983-29.983h420.004c16.548 0 29.983 13.476 29.983 29.983v359.997z"></path>
<path fill="#fff" d="M844.268 331.981c-33.096 0-60.006 26.911-60.006 60.006s26.911 60.006 60.006 60.006c33.096 0 60.006-26.911 60.006-60.006s-26.952-60.006-60.006-60.006z"></path>
<path fill="#fff" d="M874.25 512h-60.006c-16.589 0-29.983 13.435-29.983 29.983 0 16.589 13.435 29.983 29.983 29.983h60.006c16.589 0 29.983-13.435 29.983-29.983s-13.394-29.983-29.983-29.983z"></path>
<path fill="#fff" d="M874.25 632.013h-60.006c-16.589 0-29.983 13.435-29.983 29.983s13.435 29.983 29.983 29.983h60.006c16.589 0 29.983-13.435 29.983-29.983s-13.394-29.983-29.983-29.983z"></path>
<path fill="#fff" d="M874.25 751.985h-60.006c-16.589 0-29.983 13.435-29.983 29.983s13.435 29.983 29.983 29.983h60.006c16.589 0 29.983-13.435 29.983-29.983s-13.394-29.983-29.983-29.983z"></path>
</svg>
