<?xml version="1.0" encoding="utf-8"?>
<!-- Generator: Adobe Illustrator 24.0.1, SVG Export Plug-In . SVG Version: 6.00 Build 0)  -->
<svg version="1.1" id="Слой_1" xmlns="http://www.w3.org/2000/svg" xmlns:xlink="http://www.w3.org/1999/xlink" x="0px" y="0px"
	 viewBox="0 0 150 150" style="enable-background:new 0 0 150 150;" xml:space="preserve">
<style type="text/css">
	.st0{fill:#FFFFFF;}
</style>
<path class="st0" d="M150,28.5c-5.6,2.4-11.5,4.1-17.7,4.9c6.4-3.8,11.2-9.8,13.5-17c-5.9,3.5-12.5,6-19.5,7.4
	c-5.6-6-13.7-9.7-22.5-9.7c-17,0-30.7,13.8-30.7,30.7c0,2.4,0.2,4.8,0.7,7c-25.6-1.2-48.2-13.5-63.4-32.2c-2.7,4.6-4.2,9.9-4.2,15.5
	c0,10.6,5.5,20.1,13.7,25.5C15,60.7,10.1,59.2,6,57c0,0.1,0,0.2,0,0.3c0,14.9,10.7,27.3,24.6,30.2c-2.5,0.7-5.2,1-8.1,1
	c-2,0-4-0.1-5.8-0.5c4,12.2,15.3,21.1,28.7,21.4c-10.5,8.2-23.7,13.1-38.1,13.1c-2.5,0-4.9-0.1-7.4-0.4
	c13.6,8.8,29.8,13.8,47.2,13.8c56.6,0,87.5-46.9,87.5-87.5c0-1.4,0-2.7-0.1-4C140.7,40.1,145.8,34.7,150,28.5z"/>
</svg>
