<!-- Generated by IcoMoon.io -->
<svg version="1.1" xmlns="http://www.w3.org/2000/svg" width="1024" height="1024" viewBox="0 0 1024 1024">
<title>home</title>
<g id="icomoon-ignore">
</g>
<path fill="#fff" d="M837.263 8.888h-650.527c-48.783 0-88.433 39.649-88.433 88.433v829.358c0 48.783 39.69 88.433 88.433 88.433h650.527c48.783 0 88.433-39.69 88.433-88.433v-829.358c0-48.783-39.649-88.433-88.433-88.433zM186.737 67.83h650.527c16.261 0 29.491 13.23 29.491 29.491v149.381h-709.509v-149.381c0-16.261 13.23-29.491 29.491-29.491zM837.263 956.17h-650.527c-16.261 0-29.491-13.23-29.491-29.491v-621.036h709.468v621.036c0.041 16.261-13.189 29.491-29.45 29.491z"></path>
<path fill="#fff" d="M512.983 364.585c-130.048 0-235.848 105.8-235.848 235.848s105.8 235.848 235.848 235.848 235.848-105.8 235.848-235.848-105.8-235.848-235.848-235.848zM512.983 423.567c87.286 0 160.031 63.57 174.326 146.842 0 0.205-0.041 0.369-0.041 0.573 0 38.052-48.865 54.968-70.001 20.767-16.753-27.116-55.91-27.075-72.622 0-15.237 24.658-47.964 24.74-63.242 0-16.753-27.116-55.91-27.075-72.622 0-21.135 34.161-70.042 17.367-70.042-20.767 0-0.205-0.041-0.369-0.041-0.573 14.254-83.272 86.999-146.842 174.285-146.842v0zM512.983 777.339c-74.834 0-138.977-46.735-164.782-112.558 33.874 10.65 70.984 2.007 96.829-24.371 37.642 38.38 98.263 38.38 135.864 0 25.887 26.419 63.037 34.98 96.829 24.371-25.764 65.823-89.907 112.558-164.741 112.558z"></path>
<path fill="#fff" d="M807.813 158.228c0 16.288-13.204 29.491-29.491 29.491s-29.491-13.204-29.491-29.491c0-16.288 13.204-29.491 29.491-29.491s29.491 13.204 29.491 29.491z"></path>
<path fill="#fff" d="M689.889 158.228c0 16.288-13.204 29.491-29.491 29.491s-29.491-13.204-29.491-29.491c0-16.288 13.204-29.491 29.491-29.491s29.491 13.204 29.491 29.491z"></path>
<path fill="#fff" d="M571.965 158.228c0 16.288-13.204 29.491-29.491 29.491s-29.491-13.204-29.491-29.491c0-16.288 13.204-29.491 29.491-29.491s29.491 13.204 29.491 29.491z"></path>
<path fill="#fff" d="M247.644 187.72h87.45c16.261 0 29.491-13.189 29.491-29.491s-13.189-29.491-29.491-29.491h-87.45c-16.261 0-29.491 13.189-29.491 29.491s13.23 29.491 29.491 29.491z"></path>
<path fill="#fff" d="M777.339 836.28h-58.941c-16.261 0-29.491 13.189-29.491 29.491s13.189 29.491 29.491 29.491h58.941c16.261 0 29.491-13.189 29.491-29.491s-13.23-29.491-29.491-29.491z"></path>
</svg>
