<?xml version="1.0" encoding="utf-8"?>
<!-- Generator: Adobe Illustrator 24.0.1, SVG Export Plug-In . SVG Version: 6.00 Build 0)  -->
<svg version="1.1" id="Слой_1" xmlns="http://www.w3.org/2000/svg" xmlns:xlink="http://www.w3.org/1999/xlink" x="0px" y="0px"
	 viewBox="0 0 250 250" style="enable-background:new 0 0 250 250;" xml:space="preserve">
<style type="text/css">
	.st0{fill:#747D8C;}
	.st1{fill:#0042FF;}
</style>
<g>
	<path class="st0" d="M204.41,2.17H45.59C33.68,2.17,24,11.85,24,23.76v202.48c0,11.91,9.69,21.59,21.59,21.59h158.82
		c11.91,0,21.59-9.69,21.59-21.59V23.76C226,11.85,216.32,2.17,204.41,2.17z M45.59,16.56h158.82c3.97,0,7.2,3.23,7.2,7.2v36.47
		H38.39V23.76C38.39,19.79,41.62,16.56,45.59,16.56z M204.41,233.44H45.59c-3.97,0-7.2-3.23-7.2-7.2V74.62h173.21v151.62
		C211.61,230.21,208.38,233.44,204.41,233.44z"/>
	<path class="st1" d="M125.24,89.01c-31.75,0-57.58,25.83-57.58,57.58s25.83,57.58,57.58,57.58s57.58-25.83,57.58-57.58
		S156.99,89.01,125.24,89.01z M125.24,103.41c21.31,0,39.07,15.52,42.56,35.85c0,0.05-0.01,0.09-0.01,0.14
		c0,9.29-11.93,13.42-17.09,5.07c-4.09-6.62-13.65-6.61-17.73,0c-3.72,6.02-11.71,6.04-15.44,0c-4.09-6.62-13.65-6.61-17.73,0
		c-5.16,8.34-17.1,4.24-17.1-5.07c0-0.05-0.01-0.09-0.01-0.14C86.17,118.93,103.93,103.41,125.24,103.41L125.24,103.41z
		 M125.24,189.78c-18.27,0-33.93-11.41-40.23-27.48c8.27,2.6,17.33,0.49,23.64-5.95c9.19,9.37,23.99,9.37,33.17,0
		c6.32,6.45,15.39,8.54,23.64,5.95C159.17,178.37,143.51,189.78,125.24,189.78z"/>
	<circle class="st1" cx="190.02" cy="38.63" r="7.2"/>
	<circle class="st1" cx="161.23" cy="38.63" r="7.2"/>
	<circle class="st1" cx="132.44" cy="38.63" r="7.2"/>
	<path class="st1" d="M60.46,45.83h21.35c3.97,0,7.2-3.22,7.2-7.2s-3.22-7.2-7.2-7.2H60.46c-3.97,0-7.2,3.22-7.2,7.2
		S56.49,45.83,60.46,45.83z"/>
	<path class="st1" d="M189.78,204.17h-14.39c-3.97,0-7.2,3.22-7.2,7.2s3.22,7.2,7.2,7.2h14.39c3.97,0,7.2-3.22,7.2-7.2
		S193.75,204.17,189.78,204.17z"/>
</g>
</svg>
