<!-- Generated by IcoMoon.io -->
<svg version="1.1" xmlns="http://www.w3.org/2000/svg" width="1024" height="1024" viewBox="0 0 1024 1024">
<title></title>
<g id="icomoon-ignore">
</g>
<path fill="#fff" d="M782.5 1024.451h-540.877c-12.329 0-22.323-10.035-22.323-22.323v-450.437l-30.31 27.484c-4.833 4.465-11.387 6.513-17.981 5.652-6.554-0.86-12.329-4.547-15.892-10.117l-118.292-185.917c-3.195-5.038-4.26-11.018-2.949-16.835s4.792-10.813 9.83-14.008l185.876-118.333c2.335-1.475 4.874-2.499 7.578-3.031l168.1-33.628 84.46-28.18v-51.528c0-12.329 10.035-22.323 22.323-22.323 15.647 0 28.385-12.739 28.385-28.385s-12.739-28.344-28.385-28.344c-15.647 0-28.385 12.739-28.385 28.344 0 12.329-10.035 22.323-22.323 22.323-12.329 0-22.323-10.035-22.323-22.323-0.041-38.175 28.59-69.468 66.642-72.745 37.396-3.154 71.762 23.265 78.111 60.252 6.267 36.25-14.828 70.656-49.398 81.756v32.932l85.115 28.344 167.363 33.464c3.195 0.655 6.144 1.925 8.765 3.85l185.917 135.209c9.789 7.127 12.083 20.972 5.161 30.843l-118.333 169.042c-3.523 5.079-9.093 8.479-15.237 9.298-6.021 0.942-12.411-0.819-17.244-4.833l-31.089-25.436v447.611c0.041 12.329-9.994 22.323-22.282 22.323zM224.748 533.996c0.737 0 1.516 0.164 2.212 0.451 1.966 0.86 3.236 2.826 3.236 4.956v462.684c0 6.308 5.161 11.469 11.469 11.469h540.836c6.308 0 11.469-5.12 11.469-11.469v-459.039c0-2.089 1.229-4.014 3.113-4.915s4.137-0.614 5.775 0.696l40.018 32.727c2.499 2.048 5.652 2.99 8.806 2.458 3.195-0.41 6.021-2.171 7.823-4.751l118.333-169.042c3.564-5.079 2.376-12.165-2.662-15.852l-185.917-135.209c-1.352-0.983-2.826-1.638-4.465-1.966l-168.018-33.628-89.457-29.778c-2.212-0.737-3.727-2.826-3.727-5.161v-40.919c0-2.458 1.679-4.628 4.055-5.243 31.457-8.233 51.036-38.543 45.507-70.574-5.448-31.498-34.693-53.903-66.478-51.282-32.399 2.785-56.771 29.409-56.73 61.932 0 6.349 5.161 11.469 11.469 11.469s11.469-5.161 11.469-11.469c0-21.627 17.613-39.24 39.24-39.24s39.24 17.613 39.24 39.24-17.613 39.24-39.24 39.24c-6.308 0-11.469 5.12-11.469 11.469v55.419c0 2.335-1.516 4.424-3.727 5.161l-88.801 29.614-168.755 33.792c-1.393 0.287-2.744 0.819-3.932 1.556l-185.917 118.292c-2.58 1.638-4.383 4.178-5.038 7.168s-0.123 6.062 1.516 8.643l118.292 185.917c1.843 2.867 4.792 4.751 8.151 5.161 3.4 0.492 6.758-0.614 9.216-2.867l39.404-35.717c1.065-0.901 2.335-1.393 3.686-1.393zM495.165 178.708v0zM765.583 990.659h-507.044c-2.99 0-5.448-2.458-5.448-5.448v-483.983c0-4.547-2.662-8.643-6.84-10.486s-9.011-1.024-12.37 2.007l-52.756 47.964c-1.188 1.065-2.744 1.679-4.383 1.352-1.597-0.205-2.99-1.106-3.85-2.458l-98.427-154.706c-0.778-1.229-1.024-2.703-0.737-4.096 0.328-1.393 1.188-2.621 2.376-3.4l169.001-107.561c0.573-0.369 1.188-0.614 1.843-0.737l147.374-29.491c1.475-0.287 2.949 0.041 4.137 0.86 1.229 0.819 2.048 2.089 2.294 3.564 9.421 54.231 56.197 93.594 111.206 93.594 55.050 0 101.827-39.363 111.206-93.553 0.246-1.434 1.065-2.744 2.253-3.564 1.229-0.819 2.785-1.147 4.137-0.86l146.924 29.409c0.778 0.164 1.516 0.451 2.13 0.942l169.533 123.249c2.376 1.72 2.949 5.079 1.27 7.496l-98.345 140.493c-0.86 1.229-2.212 2.048-3.727 2.253s-2.99-0.205-4.178-1.188l-53.494-43.786c-3.4-2.826-8.233-3.4-12.206-1.516s-6.554 5.98-6.554 10.404v477.839c0.082 2.949-2.335 5.407-5.325 5.407zM263.987 979.763h496.148v-472.392c0-8.602 4.997-16.548 12.739-20.234 7.782-3.686 17.121-2.54 23.757 2.908l48.988 40.059 91.914-131.318-164.25-119.398-140.37-28.099c-12.411 56.607-62.382 97.116-120.873 97.116-58.45 0-108.421-40.509-120.832-97.116l-141.066 28.221-163.594 104.12 92.078 144.671 47.964-43.622c6.554-5.939 15.974-7.455 24.084-3.891 8.069 3.564 13.312 11.592 13.312 20.439v478.536zM512.082 314.614c-44.524 0-82.657-33.26-88.719-77.373-0.369-2.58 1.188-5.079 3.645-5.898l83.313-27.812c1.106-0.369 2.294-0.369 3.441 0l83.313 27.812c2.499 0.819 4.014 3.318 3.686 5.898-6.021 44.114-44.155 77.373-88.678 77.373zM434.872 240.189c7.168 36.536 39.608 63.57 77.21 63.57s70.042-27.034 77.21-63.57l-77.21-25.764-77.21 25.764z"></path>
<path fill="#fff" d="M512.041 106.373c-9.339 0-16.916 7.578-16.916 16.916v55.419l-88.801 29.573-168.1 33.628c-2.048 0.41-4.014 1.188-5.775 2.294l-185.876 118.292c-7.864 4.997-10.199 15.483-5.202 23.347l118.292 185.917c2.703 4.219 7.086 7.004 12.042 7.66s9.912-0.901 13.599-4.26l39.404-35.717v462.684c0 9.339 7.578 16.916 16.916 16.916h540.836c9.339 0 16.916-7.578 16.916-16.916v-459.080l40.018 32.727c3.604 3.031 8.356 4.342 13.025 3.645 4.669-0.614 8.847-3.195 11.51-7.045l118.292-169.001c5.284-7.537 3.564-17.94-3.891-23.347l-185.917-135.209c-1.966-1.434-4.219-2.417-6.636-2.908l-168.018-33.628-88.801-29.573v-40.919c33.915-8.847 55.46-42.189 49.48-76.759-5.939-34.57-37.356-58.819-72.294-55.788s-61.727 32.276-61.686 67.338c0 9.339 7.578 16.916 16.916 16.916s16.916-7.578 16.916-16.916c0-18.678 15.155-33.792 33.792-33.792 18.678 0 33.792 15.155 33.792 33.792s-15.155 33.792-33.833 33.792zM512.041 208.691l83.313 27.812c-5.693 41.656-41.288 72.704-83.313 72.704s-77.619-31.048-83.313-72.704l83.313-27.812zM945.029 397.599l-98.345 140.493-53.494-43.786c-5.079-4.137-12.042-4.997-17.981-2.212-5.898 2.785-9.667 8.765-9.667 15.319v477.839h-507.003v-484.024c0-6.676-3.932-12.739-10.076-15.442-6.103-2.703-13.271-1.556-18.227 2.949l-52.756 47.964-98.427-154.747 169.001-107.52 147.374-29.491c9.83 56.689 59.023 98.099 116.572 98.099s106.742-41.411 116.572-98.099l146.924 29.409 169.533 123.249z"></path>
</svg>
