<?xml version="1.0" encoding="utf-8"?>
<!-- Generator: Adobe Illustrator 24.0.1, SVG Export Plug-In . SVG Version: 6.00 Build 0)  -->
<svg version="1.1" id="Слой_1" xmlns="http://www.w3.org/2000/svg" xmlns:xlink="http://www.w3.org/1999/xlink" x="0px" y="0px"
	 viewBox="0 0 250 250" style="enable-background:new 0 0 250 250;" xml:space="preserve">
<style type="text/css">
	.st0{fill:#0042FF;}
	.st1{fill:#747D8C;}
</style>
<g>
	<g>
		<path class="st0" d="M136.87,99.51"/>
	</g>
</g>
<g>
	<path class="st1" d="M125.01,25.97c-2.28,0-4.13,1.85-4.13,4.13v13.53l-21.68,7.22l-41.04,8.21c-0.5,0.1-0.98,0.29-1.41,0.56
		L11.37,88.5c-1.92,1.22-2.49,3.78-1.27,5.7l28.88,45.39c0.66,1.03,1.73,1.71,2.94,1.87c1.21,0.16,2.42-0.22,3.32-1.04l9.62-8.72
		v112.96c0,2.28,1.85,4.13,4.13,4.13h132.04c2.28,0,4.13-1.85,4.13-4.13V132.58l9.77,7.99c0.88,0.74,2.04,1.06,3.18,0.89
		c1.14-0.15,2.16-0.78,2.81-1.72l28.88-41.26c1.29-1.84,0.87-4.38-0.95-5.7l-45.39-33.01c-0.48-0.35-1.03-0.59-1.62-0.71
		l-41.02-8.21l-21.68-7.22v-9.99c8.28-2.16,13.54-10.3,12.08-18.74c-1.45-8.44-9.12-14.36-17.65-13.62
		c-8.53,0.74-15.07,7.88-15.06,16.44c0,2.28,1.85,4.13,4.13,4.13c2.28,0,4.13-1.85,4.13-4.13c0-4.56,3.7-8.25,8.25-8.25
		c4.56,0,8.25,3.7,8.25,8.25S129.57,25.97,125.01,25.97z M125.01,50.95l20.34,6.79c-1.39,10.17-10.08,17.75-20.34,17.75
		s-18.95-7.58-20.34-17.75L125.01,50.95z M230.72,97.07l-24.01,34.3l-13.06-10.69c-1.24-1.01-2.94-1.22-4.39-0.54
		c-1.44,0.68-2.36,2.14-2.36,3.74v116.66H63.12V122.37c0-1.63-0.96-3.11-2.46-3.77c-1.49-0.66-3.24-0.38-4.45,0.72l-12.88,11.71
		L19.3,93.25L60.56,67l35.98-7.2c2.4,13.84,14.41,23.95,28.46,23.95s26.06-10.11,28.46-23.95l35.87,7.18L230.72,97.07z"/>
	<path class="st1" d="M191.04,250.11H58.99c-3.01,0-5.45-2.45-5.45-5.45V134.69l-7.4,6.71c-1.18,1.09-2.78,1.59-4.39,1.38
		c-1.6-0.21-3.01-1.11-3.88-2.47L8.99,94.92c-0.78-1.23-1.04-2.69-0.72-4.11c0.32-1.42,1.17-2.64,2.4-3.42L56.05,58.5
		c0.57-0.36,1.19-0.61,1.85-0.74l41.04-8.21l20.62-6.88V30.09c0-3.01,2.45-5.45,5.45-5.45c3.82,0,6.93-3.11,6.93-6.93
		s-3.11-6.92-6.93-6.92c-3.82,0-6.93,3.11-6.93,6.92c0,3.01-2.45,5.45-5.45,5.45c-3.01,0-5.45-2.45-5.45-5.45
		c-0.01-9.32,6.98-16.96,16.27-17.76c9.13-0.77,17.52,5.68,19.07,14.71c1.53,8.85-3.62,17.25-12.06,19.96v8.04l20.78,6.92
		l40.86,8.17c0.78,0.16,1.5,0.47,2.14,0.94l45.39,33.01c2.39,1.74,2.95,5.12,1.26,7.53L212,140.5c-0.86,1.24-2.22,2.07-3.72,2.27
		c-1.47,0.23-3.03-0.2-4.21-1.18l-7.59-6.21v109.28C196.49,247.67,194.04,250.11,191.04,250.11z M54.87,130.37
		c0.18,0,0.37,0.04,0.54,0.11c0.48,0.21,0.79,0.69,0.79,1.21v112.96c0,1.54,1.26,2.8,2.8,2.8h132.04c1.54,0,2.8-1.25,2.8-2.8V132.58
		c0-0.51,0.3-0.98,0.76-1.2c0.46-0.22,1.01-0.15,1.41,0.17l9.77,7.99c0.61,0.5,1.38,0.73,2.15,0.6c0.78-0.1,1.47-0.53,1.91-1.16
		l28.89-41.27c0.87-1.24,0.58-2.97-0.65-3.87l-45.39-33.01c-0.33-0.24-0.69-0.4-1.09-0.48l-41.02-8.21l-21.84-7.27
		c-0.54-0.18-0.91-0.69-0.91-1.26v-9.99c0-0.6,0.41-1.13,0.99-1.28c7.68-2.01,12.46-9.41,11.11-17.23
		c-1.33-7.69-8.47-13.16-16.23-12.52c-7.91,0.68-13.86,7.18-13.85,15.12c0,1.55,1.26,2.8,2.8,2.8c1.54,0,2.8-1.26,2.8-2.8
		c0-5.28,4.3-9.58,9.58-9.58c5.28,0,9.58,4.3,9.58,9.58s-4.3,9.58-9.58,9.58c-1.54,0-2.8,1.25-2.8,2.8v13.53
		c0,0.57-0.37,1.08-0.91,1.26l-21.68,7.23l-41.2,8.25c-0.34,0.07-0.67,0.2-0.96,0.38L12.09,89.62c-0.63,0.4-1.07,1.02-1.23,1.75
		c-0.16,0.73-0.03,1.48,0.37,2.11l28.88,45.39c0.45,0.7,1.17,1.16,1.99,1.26c0.83,0.12,1.65-0.15,2.25-0.7l9.62-8.72
		C54.23,130.49,54.54,130.37,54.87,130.37z M120.89,43.63h0.03H120.89z M186.91,241.86H63.12c-0.73,0-1.33-0.6-1.33-1.33V122.37
		c0-1.11-0.65-2.11-1.67-2.56c-1.02-0.45-2.2-0.25-3.02,0.49l-12.88,11.71c-0.29,0.26-0.67,0.41-1.07,0.33
		c-0.39-0.05-0.73-0.27-0.94-0.6L18.18,93.97c-0.19-0.3-0.25-0.66-0.18-1c0.08-0.34,0.29-0.64,0.58-0.83l41.26-26.26
		c0.14-0.09,0.29-0.15,0.45-0.18l35.98-7.2c0.36-0.07,0.72,0.01,1.01,0.21c0.3,0.2,0.5,0.51,0.56,0.87
		c2.3,13.24,13.72,22.85,27.15,22.85c13.44,0,24.86-9.61,27.15-22.84c0.06-0.35,0.26-0.67,0.55-0.87c0.3-0.2,0.68-0.28,1.01-0.21
		l35.87,7.18c0.19,0.04,0.37,0.11,0.52,0.23l41.39,30.09c0.58,0.42,0.72,1.24,0.31,1.83l-24.01,34.3c-0.21,0.3-0.54,0.5-0.91,0.55
		c-0.37,0.05-0.73-0.05-1.02-0.29l-13.06-10.69c-0.83-0.69-2.01-0.83-2.98-0.37c-0.97,0.46-1.6,1.46-1.6,2.54v116.66
		C188.23,241.26,187.64,241.86,186.91,241.86z M64.45,239.2h121.13V123.87c0-2.1,1.22-4.04,3.11-4.94c1.9-0.9,4.18-0.62,5.8,0.71
		l11.96,9.78l22.44-32.06l-40.1-29.15l-34.27-6.86c-3.03,13.82-15.23,23.71-29.51,23.71c-14.27,0-26.47-9.89-29.5-23.71l-34.44,6.89
		L21.13,93.66l22.48,35.32l11.71-10.65c1.6-1.45,3.9-1.82,5.88-0.95c1.97,0.87,3.25,2.83,3.25,4.99V239.2z M125.02,76.81
		c-10.87,0-20.18-8.12-21.66-18.89c-0.09-0.63,0.29-1.24,0.89-1.44l20.34-6.79c0.27-0.09,0.56-0.09,0.84,0l20.34,6.79
		c0.61,0.2,0.98,0.81,0.9,1.44C145.2,68.69,135.89,76.81,125.02,76.81z M106.17,58.64c1.75,8.92,9.67,15.52,18.85,15.52
		c9.18,0,17.1-6.6,18.85-15.52l-18.85-6.29L106.17,58.64z"/>
</g>
</svg>
