<?xml version="1.0" encoding="utf-8"?>
<!-- Generator: Adobe Illustrator 24.0.1, SVG Export Plug-In . SVG Version: 6.00 Build 0)  -->
<svg version="1.1" id="Слой_1" xmlns="http://www.w3.org/2000/svg" xmlns:xlink="http://www.w3.org/1999/xlink" x="0px" y="0px"
	 viewBox="0 0 250 250" style="enable-background:new 0 0 250 250;" xml:space="preserve">
<style type="text/css">
	.st0{fill:#A4B0BE;}
</style>
<g>
	<g>
		<path class="st0" d="M213.54,37.17c-24.27-24.56-57.6-38.01-92.1-37.13C52.73,2.08-1.07,59.09,0.98,127.8
			c0.29,14.33,3.22,28.36,8.48,41.52c4.39,11.11,10.23,21.34,17.54,30.7l-10.23,24.27c-4.09,9.36,0.29,20.17,9.65,24.27
			c3.22,1.46,7.02,1.75,10.53,1.17l47.37-8.19c16.96,5.85,34.79,7.89,52.63,6.14c61.11-6.14,108.77-56.14,111.98-117.54
			C250.67,95.35,237.81,61.73,213.54,37.17z M115.89,173.71H83.43c-4.97,0-9.36-4.09-9.36-9.36c0-4.97,4.09-9.36,9.36-9.36h32.45
			c4.97,0,9.36,4.09,9.36,9.36C125.24,169.61,121.15,173.71,115.89,173.71z M166.47,135.7H83.43c-4.97,0-9.36-4.09-9.36-9.36
			s4.09-9.36,9.36-9.36h83.04c4.97,0,9.36,4.09,9.36,9.36S171.44,135.7,166.47,135.7z M166.47,97.4H83.43
			c-4.97,0-9.36-4.09-9.36-9.36c0-4.97,4.09-9.36,9.36-9.36h83.04c4.97,0,9.36,4.09,9.36,9.36C175.82,93.01,171.44,97.4,166.47,97.4
			z"/>
	</g>
</g>
</svg>
