<?xml version="1.0" encoding="utf-8"?>
<!-- Generator: Adobe Illustrator 24.0.1, SVG Export Plug-In . SVG Version: 6.00 Build 0)  -->
<svg version="1.1" id="Слой_1" xmlns="http://www.w3.org/2000/svg" xmlns:xlink="http://www.w3.org/1999/xlink" x="0px" y="0px"
	 viewBox="0 0 250 250" style="enable-background:new 0 0 250 250;" xml:space="preserve">
<style type="text/css">
	.st0{fill:#07108F;}
</style>
<path class="st0" d="M8.3,154.79h27.34c4.59,0,8.3,3.72,8.3,8.3v49.31c0,4.59-3.72,8.3-8.3,8.3H8.3c-4.59,0-8.3-3.72-8.3-8.3v-49.31
	C0,158.5,3.72,154.79,8.3,154.79z"/>
<path class="st0" d="M74.71,58.59h27.34c4.59,0,8.3,3.72,8.3,8.3v145.5c0,4.59-3.72,8.3-8.3,8.3H74.71c-4.59,0-8.3-3.72-8.3-8.3
	V66.9C66.41,62.31,70.12,58.59,74.71,58.59z"/>
<path class="st0" d="M144.53,104.49h27.34c4.59,0,8.3,3.72,8.3,8.3v99.6c0,4.59-3.72,8.3-8.3,8.3h-27.34c-4.59,0-8.3-3.72-8.3-8.3
	v-99.6C136.23,108.21,139.95,104.49,144.53,104.49z"/>
<path class="st0" d="M214.36,29.3h27.34c4.59,0,8.3,3.72,8.3,8.3v174.8c0,4.59-3.72,8.3-8.3,8.3h-27.34c-4.59,0-8.3-3.72-8.3-8.3
	V37.6C206.05,33.01,209.77,29.3,214.36,29.3z"/>
</svg>
