<?xml version="1.0" encoding="utf-8"?>
<!-- Generator: Adobe Illustrator 24.0.1, SVG Export Plug-In . SVG Version: 6.00 Build 0)  -->
<svg version="1.1" id="Слой_1" xmlns="http://www.w3.org/2000/svg" xmlns:xlink="http://www.w3.org/1999/xlink" x="0px" y="0px"
	 viewBox="0 0 250 250" style="enable-background:new 0 0 250 250;" xml:space="preserve">
<style type="text/css">
	.st0{fill:#FFFFFF;}
</style>
<path class="st0" d="M63.77,140.51c-8.66-7.85-9.31-21.23-1.46-29.89L156.37,6.94c7.85-8.65,21.23-9.3,29.89-1.45
	s9.3,21.23,1.45,29.89L93.65,139.06c-4.19,4.6-9.92,6.94-15.68,6.94C72.89,146.01,67.81,144.18,63.77,140.51z"/>
<path class="st0" d="M156.35,243.06L62.29,139.37c-7.85-8.66-7.2-22.03,1.46-29.89c8.66-7.85,22.01-7.23,29.9,1.45l94.05,103.68
	c7.85,8.66,7.21,22.04-1.45,29.9c-4.04,3.67-9.14,5.48-14.21,5.48C166.27,250,160.54,247.66,156.35,243.06z"/>
</svg>
