<?xml version="1.0" encoding="utf-8"?>
<!-- Generator: Adobe Illustrator 24.0.1, SVG Export Plug-In . SVG Version: 6.00 Build 0)  -->
<svg version="1.1" id="Слой_1" xmlns="http://www.w3.org/2000/svg" xmlns:xlink="http://www.w3.org/1999/xlink" x="0px" y="0px"
	 viewBox="0 0 250 250" style="enable-background:new 0 0 250 250;" xml:space="preserve">
<style type="text/css">
	.st0{fill:#A5B1C2;}
</style>
<path class="st0" d="M125,0.07C55.96,0.07,0.07,56.01,0.07,125c0,68.99,55.9,124.93,124.93,124.93
	c68.99,0,124.93-55.94,124.93-124.93C249.93,56.01,193.99,0.07,125,0.07z M184.52,164.04c5.65,5.65,5.65,14.83,0,20.48
	c-2.85,2.85-6.57,4.25-10.24,4.25c-3.72,0-7.44-1.4-10.29-4.25L125,145.48l-39.04,39.04c-2.85,2.85-6.52,4.25-10.24,4.25
	s-7.44-1.4-10.24-4.25c-5.65-5.65-5.65-14.83,0-20.48L104.52,125L65.48,85.96c-5.65-5.65-5.65-14.83,0-20.48
	c5.65-5.65,14.83-5.65,20.48,0L125,104.52l38.99-39.04c5.7-5.65,14.83-5.65,20.53,0c5.65,5.65,5.65,14.83,0,20.48L145.48,125
	L184.52,164.04z"/>
</svg>
