<?xml version="1.0" encoding="utf-8"?>
<!-- Generator: Adobe Illustrator 24.0.1, SVG Export Plug-In . SVG Version: 6.00 Build 0)  -->
<svg version="1.1" id="Слой_1" xmlns="http://www.w3.org/2000/svg" xmlns:xlink="http://www.w3.org/1999/xlink" x="0px" y="0px"
	 viewBox="0 0 250 250" style="enable-background:new 0 0 250 250;" xml:space="preserve">
<style type="text/css">
	.st0{fill:#07108F;}
</style>
<g>
	<g>
		<path class="st0" d="M188.81,148.63c-17.38,0-31.51,14.14-31.51,31.51s14.14,31.51,31.51,31.51c17.38,0,31.51-14.14,31.51-31.51
			S206.19,148.63,188.81,148.63z M188.81,195.9c-8.69,0-15.76-7.07-15.76-15.76c0-8.69,7.07-15.76,15.76-15.76
			c8.69,0,15.76,7.07,15.76,15.76C204.57,188.84,197.5,195.9,188.81,195.9z"/>
	</g>
</g>
<g>
	<g>
		<path class="st0" d="M81.15,148.63c-17.38,0-31.51,14.14-31.51,31.51s14.14,31.51,31.51,31.51s31.51-14.14,31.51-31.51
			S98.52,148.63,81.15,148.63z M81.15,195.9c-8.69,0-15.76-7.07-15.76-15.76c0-8.69,7.07-15.76,15.76-15.76
			c8.69,0,15.76,7.07,15.76,15.76C96.9,188.84,89.83,195.9,81.15,195.9z"/>
	</g>
</g>
<g>
	<g>
		<path class="st0" d="M210.03,58.44c-1.34-2.66-4.06-4.34-7.04-4.34H161.5v15.76h36.63l21.45,42.67l14.08-7.08L210.03,58.44z"/>
	</g>
</g>
<g>
	<g>
		<rect x="105.57" y="172.53" class="st0" width="59.61" height="15.76"/>
	</g>
</g>
<g>
	<g>
		<path class="st0" d="M57.51,172.53H30.2c-4.35,0-7.88,3.53-7.88,7.88c0,4.35,3.53,7.88,7.88,7.88h27.31
			c4.35,0,7.88-3.53,7.88-7.88C65.39,176.06,61.86,172.53,57.51,172.53z"/>
	</g>
</g>
<g>
	<g>
		<path class="st0" d="M248.35,124.37l-15.5-19.96c-1.49-1.92-3.79-3.05-6.22-3.05h-57.25V46.22c0-4.35-3.53-7.88-7.88-7.88H30.2
			c-4.35,0-7.88,3.53-7.88,7.88s3.53,7.88,7.88,7.88h123.42v55.15c0,4.35,3.53,7.88,7.88,7.88h61.27l11.47,14.78v40.63h-21.8
			c-4.35,0-7.88,3.53-7.88,7.88c0,4.35,3.53,7.88,7.88,7.88h29.67c4.35,0,7.88-3.53,7.88-7.88V129.2
			C250,127.45,249.42,125.75,248.35,124.37z"/>
	</g>
</g>
<g>
	<g>
		<path class="st0" d="M56.99,132.62H20.75c-4.35,0-7.88,3.53-7.88,7.88c0,4.35,3.53,7.88,7.88,7.88h36.24
			c4.35,0,7.88-3.53,7.88-7.88C64.86,136.14,61.34,132.62,56.99,132.62z"/>
	</g>
</g>
<g>
	<g>
		<path class="st0" d="M75.1,101.63H7.88c-4.35,0-7.88,3.53-7.88,7.88s3.53,7.88,7.88,7.88H75.1c4.35,0,7.88-3.53,7.88-7.88
			S79.46,101.63,75.1,101.63z"/>
	</g>
</g>
<g>
	<g>
		<path class="st0" d="M87.97,70.64H20.75c-4.35,0-7.88,3.53-7.88,7.88c0,4.35,3.53,7.88,7.88,7.88h67.23
			c4.35,0,7.88-3.53,7.88-7.88C95.85,74.17,92.32,70.64,87.97,70.64z"/>
	</g>
</g>
</svg>
