<?xml version="1.0" encoding="utf-8"?>
<!-- Generator: Adobe Illustrator 24.0.1, SVG Export Plug-In . SVG Version: 6.00 Build 0)  -->
<svg version="1.1" id="Слой_1" xmlns="http://www.w3.org/2000/svg" xmlns:xlink="http://www.w3.org/1999/xlink" x="0px" y="0px"
	 viewBox="0 0 250 250" style="enable-background:new 0 0 250 250;" xml:space="preserve">
<style type="text/css">
	.st0{fill:#FFFFFF;}
</style>
<path class="st0" d="M233.97,250c-4.1,0-8.2-1.57-11.33-4.7L4.7,27.36c-6.26-6.26-6.26-16.41,0-22.67c6.26-6.26,16.4-6.26,22.67,0
	L245.3,222.64c6.26,6.26,6.26,16.4,0,22.67C242.17,248.43,238.07,250,233.97,250z"/>
<path class="st0" d="M16.03,250c-4.1,0-8.2-1.57-11.33-4.7c-6.26-6.26-6.26-16.4,0-22.67L222.64,4.7c6.26-6.26,16.4-6.26,22.67,0
	c6.26,6.26,6.26,16.41,0,22.67L27.36,245.3C24.23,248.43,20.13,250,16.03,250z"/>
</svg>
