<?xml version="1.0" encoding="utf-8"?>
<!-- Generator: Adobe Illustrator 24.0.1, SVG Export Plug-In . SVG Version: 6.00 Build 0)  -->
<svg version="1.1" id="Слой_1" xmlns="http://www.w3.org/2000/svg" xmlns:xlink="http://www.w3.org/1999/xlink" x="0px" y="0px"
	 viewBox="0 0 250 250" style="enable-background:new 0 0 250 250;" xml:space="preserve">
<style type="text/css">
	.st0{fill:#242954;}
</style>
<g>
	<path class="st0" d="M56.78,21.17c0-5.77,2.34-11.51,6.95-15.69c8.66-7.86,22.06-7.21,29.91,1.45l94.09,103.72
		c7.85,8.66,7.2,22.03-1.45,29.91c-8.66,7.86-22.05,7.2-29.91-1.46L62.26,35.39C58.6,31.34,56.78,26.24,56.78,21.17z"/>
</g>
<g>
	<path class="st0" d="M56.78,228.82c0-5.09,1.82-10.17,5.49-14.23l94.1-103.73c7.86-8.66,21.24-9.31,29.91-1.45
		c8.68,7.86,9.3,21.25,1.45,29.91L93.64,243.05c-7.86,8.66-21.26,9.32-29.91,1.46C59.12,240.31,56.78,234.58,56.78,228.82z"/>
</g>
</svg>
