<?xml version="1.0" encoding="utf-8"?>
<!-- Generator: Adobe Illustrator 24.0.1, SVG Export Plug-In . SVG Version: 6.00 Build 0)  -->
<svg version="1.1" id="Слой_1" xmlns="http://www.w3.org/2000/svg" xmlns:xlink="http://www.w3.org/1999/xlink" x="0px" y="0px"
	 viewBox="0 0 250 250" style="enable-background:new 0 0 250 250;" xml:space="preserve">
<style type="text/css">
	.st0{fill:#242954;}
</style>
<g>
	<path class="st0" d="M187.74,35.39L93.63,139.1c-7.86,8.66-21.25,9.32-29.91,1.46c-8.65-7.88-9.3-21.25-1.45-29.91L156.36,6.93
		c7.85-8.66,21.25-9.31,29.91-1.45c4.61,4.18,6.95,9.92,6.95,15.69C193.22,26.24,191.4,31.34,187.74,35.39z"/>
</g>
<g>
	<path class="st0" d="M186.27,244.51c-8.65,7.86-22.05,7.2-29.91-1.46L62.27,139.32c-7.85-8.66-7.23-22.05,1.45-29.91
		c8.67-7.86,22.05-7.21,29.91,1.45l94.1,103.73c3.67,4.06,5.49,9.14,5.49,14.23C193.22,234.58,190.88,240.31,186.27,244.51z"/>
</g>
</svg>
