<?xml version="1.0" encoding="utf-8"?>
<!-- Generator: Adobe Illustrator 24.0.1, SVG Export Plug-In . SVG Version: 6.00 Build 0)  -->
<svg version="1.1" id="Слой_1" xmlns="http://www.w3.org/2000/svg" xmlns:xlink="http://www.w3.org/1999/xlink" x="0px" y="0px"
	 viewBox="0 0 102.4 250" style="enable-background:new 0 0 102.4 250;" xml:space="preserve">
<style type="text/css">
	.st0{fill:#FFFFFF;}
</style>
<path class="st0" d="M9.62,134.55c-1.94,0-3.89-0.59-5.58-1.8c-4.28-3.09-5.25-9.05-2.16-13.33L85.11,3.97
	c3.09-4.28,9.05-5.25,13.33-2.16c4.28,3.08,5.25,9.05,2.16,13.33L17.37,130.58C15.51,133.17,12.58,134.55,9.62,134.55z"/>
<path class="st0" d="M92.86,250c-2.97,0-5.89-1.38-7.76-3.97L1.88,130.58c-3.09-4.28-2.12-10.25,2.16-13.33
	c4.28-3.09,10.25-2.12,13.33,2.16l83.23,115.45c3.08,4.28,2.12,10.25-2.16,13.33C96.75,249.41,94.8,250,92.86,250z"/>
</svg>
