<?xml version="1.0" encoding="utf-8"?>
<!-- Generator: Adobe Illustrator 24.0.1, SVG Export Plug-In . SVG Version: 6.00 Build 0)  -->
<svg version="1.1" id="Слой_1" xmlns="http://www.w3.org/2000/svg" xmlns:xlink="http://www.w3.org/1999/xlink" x="0px" y="0px"
	 viewBox="0 0 102.4 250" style="enable-background:new 0 0 102.4 250;" xml:space="preserve">
<style type="text/css">
	.st0{fill:#FFFFFF;}
</style>
<path class="st0" d="M85.11,130.58L1.88,15.14C-1.21,10.86-0.24,4.89,4.04,1.81c4.28-3.09,10.24-2.12,13.33,2.16l83.23,115.45
	c3.09,4.28,2.12,10.24-2.16,13.33c-1.69,1.21-3.64,1.8-5.58,1.8C89.9,134.55,86.97,133.17,85.11,130.58z"/>
<path class="st0" d="M4.04,248.19c-4.28-3.08-5.24-9.05-2.16-13.33l83.23-115.45c3.08-4.28,9.05-5.25,13.33-2.16
	c4.28,3.08,5.25,9.05,2.16,13.33L17.38,246.03c-1.87,2.59-4.79,3.97-7.76,3.97C7.68,250,5.73,249.41,4.04,248.19z"/>
</svg>
