<?xml version="1.0" encoding="utf-8"?>
<!-- Generator: Adobe Illustrator 24.0.1, SVG Export Plug-In . SVG Version: 6.00 Build 0)  -->
<svg version="1.1" id="Слой_1" xmlns="http://www.w3.org/2000/svg" xmlns:xlink="http://www.w3.org/1999/xlink" x="0px" y="0px"
	 viewBox="0 0 250 250" style="enable-background:new 0 0 250 250;" xml:space="preserve">
<style type="text/css">
	.st0{fill:#0042FF;}
</style>
<g>
	<path class="st0" d="M214.61,62.26L110.9,156.37c-8.66,7.86-9.32,21.25-1.46,29.91c7.88,8.65,21.25,9.3,29.91,1.45l103.72-94.09
		c8.66-7.85,9.31-21.25,1.45-29.91c-4.18-4.61-9.92-6.95-15.69-6.95C223.76,56.78,218.66,58.6,214.61,62.26z"/>
</g>
<g>
	<path class="st0" d="M5.49,63.74c-7.86,8.65-7.2,22.05,1.46,29.91l103.73,94.09c8.66,7.85,22.05,7.23,29.91-1.45
		c7.86-8.67,7.21-22.05-1.45-29.91L35.41,62.27c-4.06-3.67-9.14-5.49-14.23-5.49C15.42,56.78,9.69,59.12,5.49,63.74z"/>
</g>
</svg>
