<svg width="19" height="20" viewBox="0 0 19 20" fill="none" xmlns="http://www.w3.org/2000/svg">
<g clip-path="url(#clip0)">
<path d="M18.2195 4.172H3.36376L3.1426 1.5824C3.10612 1.1592 2.76944 0.834396 2.36512 0.834396H0.78052C0.3496 0.834396 0 1.2024 0 1.656C0 2.1096 0.3496 2.4776 0.78052 2.4776H1.65224C2.12876 8.06639 0.8968 -6.3784 2.5498 13.0024C2.61364 13.7608 3.00276 14.584 3.67384 15.1432C2.46468 16.7688 3.56972 19.1656 5.5366 19.1656C7.16908 19.1656 8.32124 17.4512 7.76112 15.828H12.0316C11.4722 17.4496 12.6213 19.1656 14.2561 19.1656C15.5602 19.1656 16.622 18.0488 16.622 16.6752C16.622 15.3016 15.561 14.1848 14.2561 14.1848H5.54192C4.94912 14.1848 4.43232 13.808 4.20964 13.26L16.6797 12.4888C17.0202 12.468 17.3082 12.216 17.3911 11.868L18.9764 5.1928C19.0996 4.6752 18.7272 4.172 18.2195 4.172ZM5.5366 17.5224C5.09276 17.5224 4.73176 17.1424 4.73176 16.6752C4.73176 16.208 5.09276 15.828 5.5366 15.828C5.98044 15.828 6.34144 16.208 6.34144 16.6752C6.34144 17.1424 5.98044 17.5224 5.5366 17.5224ZM14.2561 17.5224C13.8122 17.5224 13.4512 17.1424 13.4512 16.6752C13.4512 16.208 13.8122 15.828 14.2561 15.828C14.6999 15.828 15.0609 16.208 15.0609 16.6752C15.0609 17.1424 14.6999 17.5224 14.2561 17.5224ZM16.0162 10.884L3.99988 11.6272L3.5036 5.8144H17.2201L16.0162 10.884Z" fill="#0042FF"/>
</g>
<defs>
<clipPath id="clip0">
<rect width="19" height="20" fill="white"/>
</clipPath>
</defs>
</svg>
