<svg width="20" height="20" viewBox="0 0 20 20" fill="none" xmlns="http://www.w3.org/2000/svg">
<g clip-path="url(#clip0)">
<path d="M17.6471 3.78001L14.0757 0.208552C14.0092 0.14188 13.93 0.089188 13.8428 0.0535714C13.7566 0.0183733 13.6645 0.000167411 13.5714 0H4.28568C3.10221 0 2.14282 0.959388 2.14282 2.14286V17.8571C2.14282 19.0406 3.10221 20 4.28568 20H15.7143C16.8977 20 17.8571 19.0406 17.8571 17.8571V4.28571C17.8561 4.09612 17.7807 3.91452 17.6471 3.78001ZM14.2857 2.43859L15.4185 3.57145H14.2857V2.43859ZM16.4285 17.8571C16.4285 18.2516 16.1087 18.5714 15.7142 18.5714H4.28568C3.89117 18.5714 3.57138 18.2516 3.57138 17.8571V2.14286C3.57138 1.74835 3.89117 1.42856 4.28568 1.42856H12.8571V4.28571C12.8571 4.68021 13.1769 5.00001 13.5714 5.00001H16.4286L16.4285 17.8571Z" fill="#0042FF"/>
<rect x="5" y="14" width="9" height="1.5" rx="0.75" fill="#0042FF"/>
<rect x="5" y="11" width="5" height="1.5" rx="0.75" fill="#0042FF"/>
</g>
<defs>
<clipPath id="clip0">
<rect width="20" height="20" fill="white"/>
</clipPath>
</defs>
</svg>
