<svg width="19" height="20" viewBox="0 0 19 20" fill="none" xmlns="http://www.w3.org/2000/svg">
<path d="M13.9331 2.6512C16.1226 2.6512 17.3037 4.9832 17.3037 7.1776C17.3037 9.2248 16.2754 13.2064 9.49924 17.1928C2.72384 13.2064 1.69556 9.224 1.69556 7.1776C1.69556 4.9832 2.8766 2.6512 5.06616 2.6512C6.59224 2.6512 7.63648 3.4904 8.24372 4.1944C8.5652 4.5672 9.0212 4.7792 9.49924 4.7792C9.97728 4.7792 10.4333 4.5664 10.7548 4.1936C11.3628 3.4904 12.407 2.6512 13.9331 2.6512ZM13.9331 0.865601C11.704 0.865601 10.2304 2.1464 9.5 2.9944C8.76888 2.1472 7.29524 0.865601 5.06692 0.865601C2.0254 0.865601 0 3.8424 0 7.1776C0 9.6728 1.19548 14.5336 9.20056 19.0552C9.29404 19.108 9.39664 19.1344 9.5 19.1344C9.6026 19.1344 9.70596 19.108 9.79944 19.0552C17.8045 14.5336 19 9.6728 19 7.1776C19 3.7656 16.9146 0.865601 13.9331 0.865601Z" fill="#0042FF"/>
</svg>
