<svg width="20" height="20" viewBox="0 0 20 20" fill="none" xmlns="http://www.w3.org/2000/svg">
<g clip-path="url(#clip0)">
<path d="M7.58333 15.8333V16.5833H8.33333H10.8333C11.708 16.5833 12.4167 15.8729 12.4167 15V11.6667C12.4167 11.6204 12.4539 11.5833 12.5 11.5833C12.5461 11.5833 12.5833 11.6204 12.5833 11.6667V15C12.5833 15.9641 11.7975 16.75 10.8333 16.75H8.33333H7.58333V17.5V18.3333C7.58333 18.8383 7.17162 19.25 6.66667 19.25C6.56523 19.25 6.47276 19.2365 6.3782 19.208L1.37727 17.541C0.996295 17.407 0.75 17.0543 0.75 16.6667V1.66667C0.75 1.17799 1.13561 0.776631 1.61815 0.751272C1.64244 0.755847 1.67935 0.76206 1.72355 0.765743L1.80514 0.772542L1.88627 0.761578C1.91092 0.758247 1.93284 0.75423 1.95142 0.750326C1.95194 0.750217 1.95245 0.750109 1.95297 0.75H10.8333C11.7975 0.75 12.5833 1.53588 12.5833 2.5V5C12.5833 5.04628 12.5461 5.08333 12.5 5.08333C12.4539 5.08333 12.4167 5.04627 12.4167 5V2.5C12.4167 1.62711 11.708 0.916667 10.8333 0.916667H8.33333H7.58333V1.66667V1.66671V1.66676V1.66684V1.66694V1.66706V1.6672V1.66736V1.66755V1.66775V1.66798V1.66823V1.66849V1.66878V1.6691V1.66943V1.66978V1.67016V1.67055V1.67097V1.6714V1.67186V1.67234V1.67284V1.67336V1.6739V1.67446V1.67504V1.67564V1.67626V1.6769V1.67757V1.67825V1.67895V1.67967V1.68041V1.68118V1.68196V1.68276V1.68358V1.68442V1.68528V1.68616V1.68706V1.68798V1.68892V1.68988V1.69086V1.69186V1.69287V1.69391V1.69496V1.69604V1.69713V1.69824V1.69937V1.70052V1.70169V1.70288V1.70408V1.70531V1.70655V1.70781V1.70909V1.71039V1.71171V1.71304V1.7144V1.71577V1.71716V1.71856V1.71999V1.72143V1.7229V1.72438V1.72587V1.72739V1.72892V1.73047V1.73204V1.73363V1.73523V1.73685V1.73849V1.74015V1.74182V1.74351V1.74522V1.74694V1.74868V1.75044V1.75222V1.75401V1.75582V1.75765V1.75949V1.76135V1.76323V1.76512V1.76703V1.76896V1.7709V1.77286V1.77483V1.77682V1.77883V1.78086V1.7829V1.78495V1.78703V1.78911V1.79122V1.79334V1.79547V1.79763V1.79979V1.80198V1.80417V1.80639V1.80862V1.81086V1.81312V1.8154V1.81769V1.82V1.82232V1.82465V1.82701V1.82937V1.83175V1.83415V1.83656V1.83899V1.84143V1.84388V1.84635V1.84884V1.85134V1.85385V1.85638V1.85892V1.86148V1.86405V1.86663V1.86923V1.87185V1.87447V1.87711V1.87977V1.88244V1.88512V1.88782V1.89053V1.89325V1.89599V1.89874V1.90151V1.90428V1.90708V1.90988V1.9127V1.91553V1.91838V1.92123V1.9241V1.92699V1.92989V1.9328V1.93572V1.93865V1.9416V1.94456V1.94754V1.95052V1.95352V1.95653V1.95956V1.96259V1.96564V1.9687V1.97177V1.97486V1.97795V1.98106V1.98418V1.98732V1.99046V1.99362V1.99679V1.99997V2.00316V2.00636V2.00958V2.01281V2.01604V2.01929V2.02255V2.02583V2.02911V2.0324V2.03571V2.03903V2.04236V2.04569V2.04904V2.0524V2.05578V2.05916V2.06255V2.06596V2.06937V2.07279V2.07623V2.07968V2.08313V2.0866V2.09008V2.09356V2.09706V2.10057V2.10408V2.10761V2.11115V2.1147V2.11825V2.12182V2.1254V2.12898V2.13258V2.13619V2.1398V2.14343V2.14706V2.1507V2.15436V2.15802V2.16169V2.16537V2.16906V2.17276V2.17647V2.18018V2.18391V2.18764V2.19139V2.19514V2.1989V2.20267V2.20645V2.21023V2.21403V2.21783V2.22164V2.22546V2.22929V2.23312V2.23697V2.24082V2.24468V2.24855V2.25243V2.25631V2.2602V2.2641V2.26801V2.27193V2.27585V2.27978V2.28372V2.28766V2.29162V2.29558V2.29954V2.30352V2.3075V2.31149V2.31549V2.31949V2.3235V2.32752V2.33154V2.33557V2.33961V2.34365V2.3477V2.35176V2.35582V2.35989V2.36397V2.36805V2.37214V2.37624V2.38034V2.38445V2.38856V2.39268V2.39681V2.40094V2.40508V2.40922V2.41337V2.41753V2.42169V2.42586V2.43003V2.43421V2.43839V2.44258V2.44677V2.45097V2.45518V2.45939V2.4636V2.46782V2.47205V2.47628V2.48051V2.48475V2.489V2.49325V2.4975V2.50176V2.50602V2.51029V2.51456V2.51884V2.52312V2.52741V2.5317V2.53599V2.54029V2.54459V2.5489V2.55321V2.55752V2.56184V2.56616V2.57049V2.57482V2.57915V2.58349V2.58783V2.59218V2.59652V2.60088V2.60523V2.60959V2.61395V2.61831V2.62268V2.62705V2.63143V2.6358V2.64018V2.64457V2.64895V2.65334V2.65773V2.66212V2.66652V2.67092V2.67532V2.67973V2.68413V2.68854V2.69295V2.69736V2.70178V2.7062V2.71062V2.71504V2.71946V2.72389V2.72832V2.73275V2.73718V2.74161V2.74604V2.75048V2.75492V2.75936V2.7638V2.76824V2.77268V2.77713V2.78157V2.78602V2.79047V2.79492V2.79937V2.80382V2.80827V2.81272V2.81718V2.82163V2.82609V2.83054V2.835V2.83946V2.84391V2.84837V2.85283V2.85729V2.86175V2.86621V2.87067V2.87513V2.87958V2.88404V2.8885V2.89296V2.89742V2.90188V2.90634V2.9108V2.91526V2.91971V2.92417V2.92863V2.93308V2.93754V2.94199V2.94645V2.9509V2.95535V2.9598V2.96425V2.9687V2.97315V2.9776V2.98204V2.98649V2.99093V2.99537V2.99981V3.00425V3.00869V3.01313V3.01756V3.022V3.02643V3.03086V3.03528V3.03971V3.04413V3.04855V3.05297V3.05739V3.06181V3.06622V3.07063V3.07504V3.07945V3.08385V3.08825V3.09265V3.09705V3.10144V3.10583V3.11022V3.11461V3.11899V3.12337V3.12775V3.13212V3.13649V3.14086V3.14523V3.14959V3.15395V3.1583V3.16265V3.167V3.17134V3.17569V3.18002V3.18436V3.18869V3.19301V3.19734V3.20166V3.20597V3.21028V3.21459V3.21889V3.22319V3.22748V3.23177V3.23606V3.24034V3.24462V3.24889V3.25316V3.25742V3.26168V3.26594V3.27019V3.27443V3.27867V3.28291V3.28714V3.29136V3.29558V3.2998V3.30401V3.30822V3.31242V3.31661V3.3208V3.32498V3.32916V3.33333V15.8333Z" stroke="#0042FF" stroke-width="1.5"/>
<path d="M15.5141 4.23001L15.8013 4.92286C15.8321 4.91009 15.8679 4.91694 15.8922 4.94117L19.2255 8.27451C19.2584 8.30745 19.2584 8.35924 19.2255 8.39218L15.8922 11.7255C15.868 11.7497 15.8324 11.7565 15.8016 11.744C15.7703 11.7308 15.75 11.6997 15.75 11.6667V9.16668V8.41668H15H11.6666C11.6209 8.41668 11.5833 8.37913 11.5833 8.33334C11.5833 8.28756 11.6209 8.25001 11.6666 8.25001H15H15.75V7.50001V5.00001C15.75 4.96688 15.7705 4.93567 15.8019 4.92259L15.5141 4.23001ZM15.5141 4.23001C15.8258 4.10084 16.1841 4.17251 16.4225 4.41084L19.7558 7.74418C20.0816 8.07001 20.0816 8.59668 19.7558 8.92251L16.4225 12.2558C16.1841 12.4942 15.8258 12.5658 15.5141 12.4367L15 5.00001C15 4.66334 15.2033 4.35918 15.5141 4.23001Z" stroke="#0042FF" stroke-width="1.5"/>
</g>
<defs>
<clipPath id="clip0">
<rect width="20" height="20" fill="white"/>
</clipPath>
</defs>
</svg>
