<svg width="20" height="20" viewBox="0 0 20 20" fill="none" xmlns="http://www.w3.org/2000/svg">
<path d="M17.047 16.5598C17.047 16.5601 17.047 16.5603 17.047 16.5606C17.0974 17.2205 16.8681 17.8777 16.4198 18.3618C15.971 18.8462 15.3328 19.125 14.6725 19.125H5.32755C4.66724 19.125 4.02906 18.8462 3.58034 18.3618C3.13189 17.8776 2.90274 17.2204 2.95291 16.5624C2.95294 16.562 2.95297 16.5617 2.95299 16.5613L3.84625 5.30606L3.84643 5.30371C3.8669 5.03674 4.09936 4.82027 4.36993 4.82027H6.13407H6.43056H7.00907H7.30556H12.6945H12.991H13.5695H13.866H15.6302C15.9 4.82027 16.1332 5.03611 16.1538 5.30534L16.154 5.30758L17.047 16.5598Z" stroke="#0042FF" stroke-width="1.75"/>
<path d="M13.7558 9.11655C13.4304 8.79098 12.9025 8.79098 12.577 9.11655L8.8545 12.839L7.42314 11.4076C7.09762 11.0821 6.56974 11.0821 6.24418 11.4076C5.91861 11.7332 5.91861 12.261 6.24418 12.5866L8.26502 14.6074C8.4278 14.7702 8.64118 14.8517 8.85445 14.8517C9.06771 14.8517 9.28114 14.7703 9.44387 14.6074L13.7558 10.2956C14.0814 9.96994 14.0814 9.44212 13.7558 9.11655Z" fill="#0042FF"/>
</svg>
