<svg width="20" height="20" viewBox="0 0 20 20" fill="none" xmlns="http://www.w3.org/2000/svg">
<path d="M12.6448 7.60413C11.8722 8.37666 10.9488 8.75908 9.85748 8.75908C8.76659 8.75908 7.84311 8.3766 7.07029 7.60423L12.6448 7.60413ZM12.6448 7.60413C12.6448 7.60411 12.6448 7.60409 12.6448 7.60407M12.6448 7.60413L12.6448 7.60407M12.6448 7.60407C13.4172 6.83161 13.7997 5.90832 13.7997 4.81689C13.7997 3.72594 13.4173 2.80254 12.6448 2.0298C12.6447 2.02975 12.6447 2.0297 12.6446 2.02965M12.6448 7.60407L12.6446 2.02965M12.6446 2.02965C11.872 1.25739 10.9486 0.875 9.85748 0.875C8.76596 0.875 7.8427 1.25744 7.07029 2.02985C6.29782 2.80231 5.91528 3.72574 5.91528 4.81689C5.91528 5.9083 6.29779 6.83166 7.07014 7.60408L12.6446 2.02965Z" stroke="#0042FF" stroke-width="1.75"/>
<path d="M17.4134 15.4402L17.4134 15.4395C17.3889 15.0862 17.3388 14.6929 17.263 14.2698L17.4134 15.4402ZM17.4134 15.4402C17.4386 15.7996 17.4516 16.1766 17.4517 16.5603L17.4134 15.4402ZM16.5304 12.0923L16.5301 12.0919C16.3421 11.7609 16.128 11.4849 15.8987 11.2656L15.8985 11.2654C15.6773 11.0537 15.3955 10.8729 15.0501 10.736C14.7306 10.6095 14.3634 10.5387 13.9524 10.536C13.9501 10.5369 13.9474 10.5381 13.9442 10.5394C13.8939 10.5608 13.8008 10.6099 13.6227 10.7259C13.3852 10.8807 13.1083 11.0593 12.8002 11.2561L12.7993 11.2567C12.4524 11.4778 12.0217 11.6616 11.5432 11.8162L16.5304 12.0923ZM16.5304 12.0923C16.7188 12.4235 16.8697 12.767 16.9801 13.1116M16.5304 12.0923L16.9801 13.1116M7.16702 11.2565L7.16663 11.2562C6.86153 11.0613 6.58464 10.8829 6.3438 10.7259L6.34376 10.7259C6.16549 10.6098 6.07238 10.5605 6.02207 10.5392C6.01896 10.5379 6.01627 10.5368 6.01399 10.5359C5.60303 10.5386 5.23616 10.6095 4.9168 10.736L4.91667 10.736C4.57153 10.8727 4.28959 11.0535 4.06792 11.2656L7.16702 11.2565ZM7.16702 11.2565C7.51395 11.4779 7.94517 11.6619 8.42311 11.8163L7.16702 11.2565ZM3.43649 12.0918L3.43644 12.0919C3.24804 12.4235 3.09704 12.7669 2.98674 13.1113L3.43649 12.0918ZM3.43649 12.0918C3.62425 11.7612 3.83837 11.4852 4.06791 11.2656L3.43649 12.0918ZM2.70389 14.2698L2.70385 14.27C2.62804 14.6919 2.57802 15.0854 2.55352 15.4398L2.5535 15.4401C2.52842 15.8009 2.51562 16.1781 2.51562 16.5605C2.51562 17.4055 2.77663 18.0072 3.23042 18.4394C3.68732 18.874 4.31327 19.125 5.16861 19.125H14.7987C15.6539 19.125 16.2799 18.874 16.7371 18.4391L2.70389 14.2698ZM2.70389 14.2698C2.77904 13.8512 2.87474 13.4616 2.98666 13.1116L2.70389 14.2698ZM16.9801 13.1116C17.0921 13.4614 17.1878 13.8509 17.2629 14.2696L16.9801 13.1116ZM9.98306 12.0673C10.5075 12.0673 11.0324 11.9814 11.5428 11.8164L8.42338 11.8164C8.93389 11.9814 9.45879 12.0673 9.98306 12.0673ZM17.4517 16.5607C17.4517 17.406 17.1906 18.0076 16.7371 18.4391L17.4517 16.5607Z" stroke="#0042FF" stroke-width="1.75"/>
</svg>
